<?xml version="1.0" encoding="UTF-8"?>
<svg width="11px" height="11px" viewBox="0 0 11 11" version="1.1" xmlns="http://www.w3.org/2000/svg" xmlns:xlink="http://www.w3.org/1999/xlink">
    <!-- Generator: Sketch 52.4 (67378) - http://www.bohemiancoding.com/sketch -->
    <title>icon/device/access_time_24px</title>
    <desc>Created with Sketch.</desc>
    <defs>
        <path d="M1023.4945,678 C1020.4585,678 1018,680.464 1018,683.5 C1018,686.536 1020.4585,689 1023.4945,689 C1026.536,689 1029,686.536 1029,683.5 C1029,680.464 1026.536,678 1023.4945,678 Z M1023.5,687.9 C1021.069,687.9 1019.1,685.931 1019.1,683.5 C1019.1,681.069 1021.069,679.1 1023.5,679.1 C1025.931,679.1 1027.9,681.069 1027.9,683.5 C1027.9,685.931 1025.931,687.9 1023.5,687.9 Z M1023.775,680.75 L1022.95,680.75 L1022.95,684.05 L1025.8375,685.7825 L1026.25,685.106 L1023.775,683.6375 L1023.775,680.75 Z" id="path-1"></path>
    </defs>
    <g id="Course-Chain" stroke="none" stroke-width="1" fill="none" fill-rule="evenodd">
        <g id="Courses-Detail" transform="translate(-1018.000000, -678.000000)">
            <mask id="mask-2" fill="white">
                <use xlink:href="#path-1"></use>
            </mask>
            <use id="icon/device/access_time_24px" fill="#999999" fill-rule="nonzero" xlink:href="#path-1"></use>
        </g>
    </g>
</svg>