<?xml version="1.0" encoding="UTF-8"?>
<svg width="227px" height="105px" viewBox="0 0 227 105" version="1.1" xmlns="http://www.w3.org/2000/svg" xmlns:xlink="http://www.w3.org/1999/xlink">
    <!-- Generator: Sketch 52.3 (67297) - http://www.bohemiancoding.com/sketch -->
    <title>Group 14</title>
    <desc>Created with Sketch.</desc>
    <defs>
        <circle id="path-1" cx="36.5" cy="36.5" r="36.5"></circle>
        <filter x="-34.2%" y="-31.5%" width="168.5%" height="168.5%" filterUnits="objectBoundingBox" id="filter-2">
            <feOffset dx="0" dy="2" in="SourceAlpha" result="shadowOffsetOuter1"></feOffset>
            <feGaussianBlur stdDeviation="8" in="shadowOffsetOuter1" result="shadowBlurOuter1"></feGaussianBlur>
            <feColorMatrix values="0 0 0 0 0.721115009   0 0 0 0 0.721115009   0 0 0 0 0.721115009  0 0 0 0.5 0" type="matrix" in="shadowBlurOuter1"></feColorMatrix>
        </filter>
    </defs>
    <g id="StackChain" stroke="none" stroke-width="1" fill="none" fill-rule="evenodd">
        <g id="Home-2" transform="translate(-18.000000, -1.000000)">
            <g id="Group-14" transform="translate(34.000000, 15.000000)">
                <g id="Oval">
                    <use fill="black" fill-opacity="1" filter="url(#filter-2)" xlink:href="#path-1"></use>
                    <use fill="#FFFFFF" fill-rule="evenodd" xlink:href="#path-1"></use>
                </g>
                <g id="Group-13" transform="translate(22.000000, 17.000000)" fill-rule="nonzero">
                    <rect id="Rectangle" fill="#7EC837" x="1" y="0" width="28" height="7" rx="3.5"></rect>
                    <path d="M-4.5,8 L11.5,8 C13.4329966,8 15,9.56700338 15,11.5 L15,11.5 C15,13.4329966 13.4329966,15 11.5,15 L-4.5,15 C-6.43299662,15 -8,13.4329966 -8,11.5 L-8,11.5 C-8,9.56700338 -6.43299662,8 -4.5,8 Z" id="Rectangle" fill="#7EC837" transform="translate(3.500000, 11.500000) rotate(-270.000000) translate(-3.500000, -11.500000) "></path>
                    <rect id="Rectangle" fill="#2E86FC" x="0" y="16" width="28" height="7" rx="3.5"></rect>
                    <path d="M22.5,3 L28.5,3 C30.4329966,3 32,4.56700338 32,6.5 L32,6.5 C32,8.43299662 30.4329966,10 28.5,10 L22.5,10 C20.5670034,10 19,8.43299662 19,6.5 L19,6.5 C19,4.56700338 20.5670034,3 22.5,3 Z" id="Rectangle" fill="#7EC837" transform="translate(25.500000, 6.500000) rotate(-270.000000) translate(-25.500000, -6.500000) "></path>
                    <path d="M0.5,29 L6.5,29 C8.43299662,29 10,30.5670034 10,32.5 L10,32.5 C10,34.4329966 8.43299662,36 6.5,36 L0.5,36 C-1.43299662,36 -3,34.4329966 -3,32.5 L-3,32.5 C-3,30.5670034 -1.43299662,29 0.5,29 Z" id="Rectangle" fill="#2E86FC" transform="translate(3.500000, 32.500000) rotate(-270.000000) translate(-3.500000, -32.500000) "></path>
                    <path d="M17.5,24 L33.5,24 C35.4329966,24 37,25.5670034 37,27.5 L37,27.5 C37,29.4329966 35.4329966,31 33.5,31 L17.5,31 C15.5670034,31 14,29.4329966 14,27.5 L14,27.5 C14,25.5670034 15.5670034,24 17.5,24 Z" id="Rectangle" fill="#2E86FC" transform="translate(25.500000, 27.500000) rotate(-270.000000) translate(-25.500000, -27.500000) "></path>
                    <path d="M22,22.9983987 L22,19.2878724 C22,17.505817 23.4170715,16.0547364 25.1858451,16 C27.0693867,16.0565029 28.5789474,17.6011624 28.5789474,19.4983987 C28.5789474,21.4313953 27.011944,22.9983987 25.0789474,22.9983987 L22,22.9983987 Z" id="Combined-Shape" fill="#2863C4"></path>
                    <rect id="Rectangle" fill="#2E86FC" x="1" y="32" width="28" height="7" rx="3.5"></rect>
                    <path d="M7,32 L7,35.5 C7,37.4329966 5.43299662,39 3.5,39 C2.53350169,39 1.65850169,38.6082492 1.02512627,37.9748737 C0.391750844,37.3414983 1.18361906e-16,36.4664983 0,35.5 C-2.36723813e-16,33.5670034 1.56700338,32 3.5,32 L7,32 Z" id="Combined-Shape" fill="#2863C4"></path>
                    <path d="M27.9748737,1.02512627 C28.6082492,1.65850169 29,2.53350169 29,3.5 C29,5.43299662 27.4329966,7 25.5,7 L22,7 L22,3.5 C22,1.56700338 23.5670034,4.86913502e-10 25.5,4.86913621e-10 C26.4664983,4.8691368e-10 27.3414983,0.391750844 27.9748737,1.02512627 Z" id="Combined-Shape" fill="#0D9E58"></path>
                    <path d="" id="Combined-Shape" fill="#7EC837"></path>
                    <path d="" id="Combined-Shape" fill="#7EC837"></path>
                </g>
                <path d="M106.524414,44.6230469 C106.524414,45.2646516 106.394777,45.8666964 106.135498,46.4291992 C105.876219,46.991702 105.529055,47.4838846 105.093994,47.9057617 C104.658933,48.3276388 104.153567,48.6594226 103.577881,48.901123 C103.002194,49.1428235 102.393558,49.2636719 101.751953,49.2636719 L100.394043,49.2636719 C99.7524382,49.2636719 99.1438017,49.1428235 98.5681152,48.901123 C97.9924288,48.6594226 97.4870627,48.3276388 97.052002,47.9057617 C96.6169412,47.4838846 96.2697767,46.991702 96.010498,46.4291992 C95.7512194,45.8666964 95.621582,45.2646516 95.621582,44.6230469 L95.621582,43.871582 L97.3222656,43.5947266 L97.3222656,44.6230469 C97.3222656,45.044924 97.4079581,45.4382306 97.5793457,45.8029785 C97.7507333,46.1677264 97.9814439,46.488524 98.2714844,46.7653809 C98.5615249,47.0422377 98.8977032,47.2597648 99.2800293,47.4179688 C99.6623554,47.5761727 100.064451,47.6552734 100.486328,47.6552734 L101.672852,47.6552734 C102.094729,47.6552734 102.494627,47.5761727 102.872559,47.4179688 C103.25049,47.2597648 103.584471,47.0422377 103.874512,46.7653809 C104.164552,46.488524 104.395263,46.1677264 104.56665,45.8029785 C104.738038,45.4382306 104.82373,45.044924 104.82373,44.6230469 L104.82373,44.0561523 C104.82373,43.4057585 104.69629,42.8652365 104.441406,42.4345703 C104.186522,42.0039041 103.848147,41.6369644 103.42627,41.3337402 C103.004392,41.0305161 102.527591,40.7734386 101.99585,40.5625 C101.464109,40.3515614 100.916995,40.1406261 100.354492,39.9296875 C99.7919894,39.7187489 99.2448757,39.4858411 98.7131348,39.230957 C98.1813938,38.9760729 97.704592,38.6574726 97.2827148,38.2751465 C96.8608377,37.8928204 96.5224622,37.4248075 96.2675781,36.8710938 C96.012694,36.31738 95.8852539,35.6362345 95.8852539,34.8276367 L95.8852539,34.4716797 C95.8852539,33.8300749 96.0061023,33.2280302 96.2478027,32.6655273 C96.4895032,32.1030245 96.821287,31.610842 97.2431641,31.1889648 C97.6650412,30.7670877 98.159421,30.4353039 98.7263184,30.1936035 C99.2932157,29.9519031 99.8974577,29.8310547 100.539062,29.8310547 L101.751953,29.8310547 C102.393558,29.8310547 102.995603,29.9519031 103.558105,30.1936035 C104.120608,30.4353039 104.612791,30.7670877 105.034668,31.1889648 C105.456545,31.610842 105.788329,32.1030245 106.030029,32.6655273 C106.27173,33.2280302 106.392578,33.8300749 106.392578,34.4716797 L106.392578,34.9594727 L104.691895,35.2363281 L104.691895,34.4716797 C104.691895,34.0498026 104.612794,33.656496 104.45459,33.291748 C104.296386,32.9270001 104.081056,32.6083998 103.808594,32.3359375 C103.536131,32.0634752 103.217531,31.8481453 102.852783,31.6899414 C102.488035,31.5317375 102.094729,31.4526367 101.672852,31.4526367 L100.618164,31.4526367 C100.196287,31.4526367 99.8029803,31.5317375 99.4382324,31.6899414 C99.0734845,31.8481453 98.7526869,32.0634752 98.4758301,32.3359375 C98.1989732,32.6083998 97.9814461,32.9270001 97.8232422,33.291748 C97.6650383,33.656496 97.5859375,34.0498026 97.5859375,34.4716797 L97.5859375,34.8276367 C97.5859375,35.4340851 97.7133776,35.9438456 97.9682617,36.3569336 C98.2231458,36.7700216 98.5615213,37.1237778 98.9833984,37.4182129 C99.4052755,37.712648 99.8820774,37.9675282 100.413818,38.1828613 C100.945559,38.3981944 101.492673,38.6179188 102.055176,38.842041 C102.617679,39.0661632 103.164792,39.3122545 103.696533,39.5803223 C104.228274,39.84839 104.705076,40.1779766 105.126953,40.5690918 C105.54883,40.960207 105.887206,41.4370089 106.14209,41.9995117 C106.396974,42.5620145 106.524414,43.2475546 106.524414,44.0561523 L106.524414,44.6230469 Z M114.553223,49 C114.061033,49 113.597414,48.9077158 113.162354,48.7231445 C112.727293,48.5385733 112.349367,48.283693 112.028564,47.9584961 C111.707762,47.6332992 111.452882,47.2553732 111.263916,46.824707 C111.07495,46.3940408 110.980469,45.9326196 110.980469,45.4404297 L110.980469,37.0424805 L108.554688,37.0424805 L108.554688,35.5 L110.980469,35.5 L110.980469,32.2568359 L112.602051,31.9931641 L112.602051,35.5 L116.029785,35.5 L116.029785,37.0424805 L112.602051,37.0424805 L112.602051,45.5195312 C112.602051,45.7919935 112.652587,46.0446766 112.753662,46.2775879 C112.854737,46.5104992 112.993163,46.7148429 113.168945,46.890625 C113.344727,47.0664071 113.551268,47.2048335 113.788574,47.3059082 C114.02588,47.4069829 114.28076,47.4575195 114.553223,47.4575195 L116.029785,47.4575195 L116.029785,49 L114.553223,49 Z M127.486328,49 L126.589844,47.6552734 C126.220701,48.1386743 125.75928,48.5275864 125.205566,48.8220215 C124.651853,49.1164566 124.045413,49.2636719 123.38623,49.2636719 L122.977539,49.2636719 C122.432614,49.2636719 121.918459,49.1604014 121.435059,48.9538574 C120.951658,48.7473134 120.529787,48.463869 120.169434,48.1035156 C119.80908,47.7431623 119.525636,47.3212915 119.319092,46.8378906 C119.112548,46.3544898 119.009277,45.8403348 119.009277,45.2954102 L119.009277,45.1635742 C119.009277,44.6186496 119.112548,44.1044946 119.319092,43.6210938 C119.525636,43.1376929 119.80908,42.7158221 120.169434,42.3554688 C120.529787,41.9951154 120.951658,41.711671 121.435059,41.505127 C121.918459,41.298583 122.432614,41.1953125 122.977539,41.1953125 L126.405273,41.1953125 L126.405273,39.1123047 C126.405273,38.7871077 126.343751,38.4816909 126.220703,38.1960449 C126.097656,37.910399 125.930665,37.6621104 125.719727,37.4511719 C125.508788,37.2402333 125.260499,37.0732428 124.974854,36.9501953 C124.689208,36.8271478 124.383791,36.765625 124.058594,36.765625 L123.109375,36.765625 C122.784178,36.765625 122.478761,36.8271478 122.193115,36.9501953 C121.907469,37.0732428 121.659181,37.2402333 121.448242,37.4511719 C121.237304,37.6621104 121.070313,37.910399 120.947266,38.1960449 C120.824218,38.4816909 120.762695,38.7871077 120.762695,39.1123047 L120.762695,39.6000977 L119.141113,39.3364258 L119.141113,39.2045898 C119.141113,38.6596652 119.244384,38.1455102 119.450928,37.6621094 C119.657472,37.1787085 119.940916,36.7568377 120.30127,36.3964844 C120.661623,36.036131 121.083494,35.7526866 121.566895,35.5461426 C122.050295,35.3395986 122.56445,35.2363281 123.109375,35.2363281 L124.058594,35.2363281 C124.603518,35.2363281 125.117673,35.3395986 125.601074,35.5461426 C126.084475,35.7526866 126.506346,36.036131 126.866699,36.3964844 C127.227053,36.7568377 127.510497,37.1787085 127.717041,37.6621094 C127.923585,38.1455102 128.026855,38.6596652 128.026855,39.2045898 L128.026855,49 L127.486328,49 Z M126.405273,42.4609375 L122.977539,42.4609375 C122.652342,42.4609375 122.346925,42.5224603 122.061279,42.6455078 C121.775633,42.7685553 121.527345,42.9377431 121.316406,43.1530762 C121.105468,43.3684093 120.938477,43.6188951 120.81543,43.904541 C120.692382,44.190187 120.630859,44.4956038 120.630859,44.8208008 L120.630859,45.3876953 C120.630859,45.7128923 120.692382,46.0183091 120.81543,46.3039551 C120.938477,46.589601 121.105468,46.8378896 121.316406,47.0488281 C121.527345,47.2597667 121.775633,47.4267572 122.061279,47.5498047 C122.346925,47.6728522 122.652342,47.734375 122.977539,47.734375 L124.058594,47.734375 C124.383791,47.734375 124.689208,47.6728522 124.974854,47.5498047 C125.260499,47.4267572 125.508788,47.2597667 125.719727,47.0488281 C125.930665,46.8378896 126.097656,46.589601 126.220703,46.3039551 C126.343751,46.0183091 126.405273,45.7128923 126.405273,45.3876953 L126.405273,42.4609375 Z M140.287598,45.2954102 C140.287598,45.8403348 140.184327,46.3544898 139.977783,46.8378906 C139.771239,47.3212915 139.487795,47.7431623 139.127441,48.1035156 C138.767088,48.463869 138.345217,48.7473134 137.861816,48.9538574 C137.378416,49.1604014 136.864261,49.2636719 136.319336,49.2636719 L135.238281,49.2636719 C134.693357,49.2636719 134.179202,49.1604014 133.695801,48.9538574 C133.2124,48.7473134 132.790529,48.463869 132.430176,48.1035156 C132.069822,47.7431623 131.786378,47.3212915 131.579834,46.8378906 C131.37329,46.3544898 131.27002,45.8403348 131.27002,45.2954102 L131.27002,39.2045898 C131.27002,38.6596652 131.37329,38.1455102 131.579834,37.6621094 C131.786378,37.1787085 132.069822,36.7568377 132.430176,36.3964844 C132.790529,36.036131 133.2124,35.7526866 133.695801,35.5461426 C134.179202,35.3395986 134.693357,35.2363281 135.238281,35.2363281 L136.319336,35.2363281 C136.864261,35.2363281 137.378416,35.3395986 137.861816,35.5461426 C138.345217,35.7526866 138.767088,36.036131 139.127441,36.3964844 C139.487795,36.7568377 139.771239,37.1787085 139.977783,37.6621094 C140.184327,38.1455102 140.287598,38.6596652 140.287598,39.2045898 L140.287598,39.7451172 L138.666016,40.0087891 L138.666016,39.1123047 C138.666016,38.7871077 138.604493,38.4816909 138.481445,38.1960449 C138.358398,37.910399 138.191407,37.6621104 137.980469,37.4511719 C137.76953,37.2402333 137.521242,37.0732428 137.235596,36.9501953 C136.94995,36.8271478 136.644533,36.765625 136.319336,36.765625 L135.238281,36.765625 C134.913084,36.765625 134.607667,36.8271478 134.322021,36.9501953 C134.036376,37.0732428 133.788087,37.2402333 133.577148,37.4511719 C133.36621,37.6621104 133.199219,37.910399 133.076172,38.1960449 C132.953124,38.4816909 132.891602,38.7871077 132.891602,39.1123047 L132.891602,45.3876953 C132.891602,45.7128923 132.953124,46.0183091 133.076172,46.3039551 C133.199219,46.589601 133.36621,46.8378896 133.577148,47.0488281 C133.788087,47.2597667 134.036376,47.4267572 134.322021,47.5498047 C134.607667,47.6728522 134.913084,47.734375 135.238281,47.734375 L136.319336,47.734375 C136.644533,47.734375 136.94995,47.6728522 137.235596,47.5498047 C137.521242,47.4267572 137.76953,47.2597667 137.980469,47.0488281 C138.191407,46.8378896 138.358398,46.589601 138.481445,46.3039551 C138.604493,46.0183091 138.666016,45.7128923 138.666016,45.3876953 L138.666016,44.4912109 L140.287598,44.7548828 L140.287598,45.2954102 Z M151.52002,49 L146.009277,42.25 L151.52002,35.5 L153.629395,35.5 L147.986816,42.25 L153.629395,49 L151.52002,49 Z M144.071289,49 L144.071289,30.0947266 L145.692871,30.0947266 L145.692871,49 L144.071289,49 Z" id="Stack" stroke="#222222" fill="#222222"></path>
                <path d="M167.524414,45.6230469 C167.524414,46.2646516 167.403566,46.8666964 167.161865,47.4291992 C166.920165,47.991702 166.588381,48.4838846 166.166504,48.9057617 C165.744627,49.3276388 165.252444,49.6594226 164.689941,49.901123 C164.127439,50.1428235 163.525394,50.2636719 162.883789,50.2636719 L161.539062,50.2636719 C160.897458,50.2636719 160.293216,50.1428235 159.726318,49.901123 C159.159421,49.6594226 158.665041,49.3276388 158.243164,48.9057617 C157.821287,48.4838846 157.489503,47.991702 157.247803,47.4291992 C157.006102,46.8666964 156.885254,46.2646516 156.885254,45.6230469 L156.885254,35.4716797 C156.885254,34.8300749 157.006102,34.2280302 157.247803,33.6655273 C157.489503,33.1030245 157.821287,32.610842 158.243164,32.1889648 C158.665041,31.7670877 159.159421,31.4353039 159.726318,31.1936035 C160.293216,30.9519031 160.897458,30.8310547 161.539062,30.8310547 L162.883789,30.8310547 C163.525394,30.8310547 164.127439,30.9519031 164.689941,31.1936035 C165.252444,31.4353039 165.744627,31.7670877 166.166504,32.1889648 C166.588381,32.610842 166.920165,33.1030245 167.161865,33.6655273 C167.403566,34.2280302 167.524414,34.8300749 167.524414,35.4716797 L167.524414,36.2363281 L165.82373,36.5 L165.82373,35.4716797 C165.82373,35.0498026 165.74463,34.656496 165.586426,34.291748 C165.428222,33.9270001 165.212892,33.6083998 164.94043,33.3359375 C164.667967,33.0634752 164.349367,32.8481453 163.984619,32.6899414 C163.619871,32.5317375 163.226565,32.4526367 162.804688,32.4526367 L161.618164,32.4526367 C161.196287,32.4526367 160.80298,32.5317375 160.438232,32.6899414 C160.073485,32.8481453 159.752687,33.0634752 159.47583,33.3359375 C159.198973,33.6083998 158.981446,33.9270001 158.823242,34.291748 C158.665038,34.656496 158.585938,35.0498026 158.585938,35.4716797 L158.585938,45.6230469 C158.585938,46.044924 158.665038,46.4382306 158.823242,46.8029785 C158.981446,47.1677264 159.198973,47.488524 159.47583,47.7653809 C159.752687,48.0422377 160.073485,48.2597648 160.438232,48.4179688 C160.80298,48.5761727 161.196287,48.6552734 161.618164,48.6552734 L162.804688,48.6552734 C163.226565,48.6552734 163.619871,48.5761727 163.984619,48.4179688 C164.349367,48.2597648 164.667967,48.0422377 164.94043,47.7653809 C165.212892,47.488524 165.428222,47.1677264 165.586426,46.8029785 C165.74463,46.4382306 165.82373,46.044924 165.82373,45.6230469 L165.82373,44.5947266 L167.524414,44.871582 L167.524414,45.6230469 Z M178.163574,50 L178.163574,40.1123047 C178.163574,39.7871077 178.102051,39.4816909 177.979004,39.1960449 C177.855956,38.910399 177.688966,38.6621104 177.478027,38.4511719 C177.267089,38.2402333 177.0188,38.0732428 176.733154,37.9501953 C176.447508,37.8271478 176.142091,37.765625 175.816895,37.765625 L174.73584,37.765625 C174.410643,37.765625 174.105226,37.8271478 173.81958,37.9501953 C173.533934,38.0732428 173.285646,38.2402333 173.074707,38.4511719 C172.863768,38.6621104 172.696778,38.910399 172.57373,39.1960449 C172.450683,39.4816909 172.38916,39.7871077 172.38916,40.1123047 L172.38916,50 L170.767578,50 L170.767578,31.0947266 L172.38916,31.0947266 L172.38916,37.6337891 C172.758303,37.1943337 173.202146,36.8515637 173.720703,36.6054688 C174.23926,36.3593738 174.801755,36.2363281 175.408203,36.2363281 L175.816895,36.2363281 C176.361819,36.2363281 176.875974,36.3395986 177.359375,36.5461426 C177.842776,36.7526866 178.264647,37.036131 178.625,37.3964844 C178.985353,37.7568377 179.268798,38.1787085 179.475342,38.6621094 C179.681886,39.1455102 179.785156,39.6596652 179.785156,40.2045898 L179.785156,50 L178.163574,50 Z M191.505371,50 L190.608887,48.6552734 C190.239744,49.1386743 189.778323,49.5275864 189.224609,49.8220215 C188.670896,50.1164566 188.064456,50.2636719 187.405273,50.2636719 L186.996582,50.2636719 C186.451657,50.2636719 185.937502,50.1604014 185.454102,49.9538574 C184.970701,49.7473134 184.54883,49.463869 184.188477,49.1035156 C183.828123,48.7431623 183.544679,48.3212915 183.338135,47.8378906 C183.131591,47.3544898 183.02832,46.8403348 183.02832,46.2954102 L183.02832,46.1635742 C183.02832,45.6186496 183.131591,45.1044946 183.338135,44.6210938 C183.544679,44.1376929 183.828123,43.7158221 184.188477,43.3554688 C184.54883,42.9951154 184.970701,42.711671 185.454102,42.505127 C185.937502,42.298583 186.451657,42.1953125 186.996582,42.1953125 L190.424316,42.1953125 L190.424316,40.1123047 C190.424316,39.7871077 190.362794,39.4816909 190.239746,39.1960449 C190.116699,38.910399 189.949708,38.6621104 189.73877,38.4511719 C189.527831,38.2402333 189.279542,38.0732428 188.993896,37.9501953 C188.708251,37.8271478 188.402834,37.765625 188.077637,37.765625 L187.128418,37.765625 C186.803221,37.765625 186.497804,37.8271478 186.212158,37.9501953 C185.926512,38.0732428 185.678224,38.2402333 185.467285,38.4511719 C185.256347,38.6621104 185.089356,38.910399 184.966309,39.1960449 C184.843261,39.4816909 184.781738,39.7871077 184.781738,40.1123047 L184.781738,40.6000977 L183.160156,40.3364258 L183.160156,40.2045898 C183.160156,39.6596652 183.263427,39.1455102 183.469971,38.6621094 C183.676515,38.1787085 183.959959,37.7568377 184.320312,37.3964844 C184.680666,37.036131 185.102537,36.7526866 185.585938,36.5461426 C186.069338,36.3395986 186.583493,36.2363281 187.128418,36.2363281 L188.077637,36.2363281 C188.622561,36.2363281 189.136716,36.3395986 189.620117,36.5461426 C190.103518,36.7526866 190.525389,37.036131 190.885742,37.3964844 C191.246096,37.7568377 191.52954,38.1787085 191.736084,38.6621094 C191.942628,39.1455102 192.045898,39.6596652 192.045898,40.2045898 L192.045898,50 L191.505371,50 Z M190.424316,43.4609375 L186.996582,43.4609375 C186.671385,43.4609375 186.365968,43.5224603 186.080322,43.6455078 C185.794676,43.7685553 185.546388,43.9377431 185.335449,44.1530762 C185.124511,44.3684093 184.95752,44.6188951 184.834473,44.904541 C184.711425,45.190187 184.649902,45.4956038 184.649902,45.8208008 L184.649902,46.3876953 C184.649902,46.7128923 184.711425,47.0183091 184.834473,47.3039551 C184.95752,47.589601 185.124511,47.8378896 185.335449,48.0488281 C185.546388,48.2597667 185.794676,48.4267572 186.080322,48.5498047 C186.365968,48.6728522 186.671385,48.734375 186.996582,48.734375 L188.077637,48.734375 C188.402834,48.734375 188.708251,48.6728522 188.993896,48.5498047 C189.279542,48.4267572 189.527831,48.2597667 189.73877,48.0488281 C189.949708,47.8378896 190.116699,47.589601 190.239746,47.3039551 C190.362794,47.0183091 190.424316,46.7128923 190.424316,46.3876953 L190.424316,43.4609375 Z M195.697754,33.2568359 L195.697754,31.0947266 L197.583008,31.0947266 L197.583008,33.2568359 L195.697754,33.2568359 Z M195.82959,50 L195.82959,36.5 L197.451172,36.5 L197.451172,50 L195.82959,50 Z M208.630859,50 L208.630859,40.1123047 C208.630859,39.7871077 208.569337,39.4816909 208.446289,39.1960449 C208.323242,38.910399 208.156251,38.6621104 207.945312,38.4511719 C207.734374,38.2402333 207.486085,38.0732428 207.200439,37.9501953 C206.914793,37.8271478 206.609377,37.765625 206.28418,37.765625 L205.203125,37.765625 C204.877928,37.765625 204.572511,37.8271478 204.286865,37.9501953 C204.001219,38.0732428 203.752931,38.2402333 203.541992,38.4511719 C203.331054,38.6621104 203.164063,38.910399 203.041016,39.1960449 C202.917968,39.4816909 202.856445,39.7871077 202.856445,40.1123047 L202.856445,50 L201.234863,50 L201.234863,36.5 L201.775391,36.5 L202.658691,37.8710938 C203.027834,37.3701147 203.491452,36.9724136 204.049561,36.6779785 C204.607669,36.3835434 205.216305,36.2363281 205.875488,36.2363281 L206.28418,36.2363281 C206.829104,36.2363281 207.343259,36.3395986 207.82666,36.5461426 C208.310061,36.7526866 208.731932,37.036131 209.092285,37.3964844 C209.452639,37.7568377 209.736083,38.1787085 209.942627,38.6621094 C210.149171,39.1455102 210.252441,39.6596652 210.252441,40.2045898 L210.252441,50 L208.630859,50 Z" id="Chain" fill="#222222"></path>
            </g>
        </g>
    </g>
</svg>