<?xml version="1.0" encoding="UTF-8"?>
<svg width="75px" height="11px" viewBox="0 0 75 11" version="1.1" xmlns="http://www.w3.org/2000/svg" xmlns:xlink="http://www.w3.org/1999/xlink">
    <!-- Generator: Sketch 52.4 (67378) - http://www.bohemiancoding.com/sketch -->
    <title>Group 13</title>
    <desc>Created with Sketch.</desc>
    <g id="Course-Chain" stroke="none" stroke-width="1" fill="none" fill-rule="evenodd">
        <g id="Courses-Detail" transform="translate(-1206.000000, -1610.000000)" fill="#FAC147">
            <g id="Group-13" transform="translate(1206.000000, 1610.000000)">
                <polygon id="Path" points="75 4.20173559 70.508628 3.62101824 68.4999351 0 66.4915019 3.62101824 62 4.20173559 65.2499675 7.02015045 64.4828089 11 68.4999351 9.12090267 72.517321 11 71.7500325 7.02015045"></polygon>
                <polygon id="Path" points="59 4.20173559 54.508628 3.62101824 52.4999351 0 50.4915019 3.62101824 46 4.20173559 49.2499675 7.02015045 48.4828089 11 52.4999351 9.12090267 56.517321 11 55.7500325 7.02015045"></polygon>
                <polygon id="Path" points="44 4.20173559 39.508628 3.62101824 37.4999351 0 35.4915019 3.62101824 31 4.20173559 34.2499675 7.02015045 33.4828089 11 37.4999351 9.12090267 41.517321 11 40.7500325 7.02015045"></polygon>
                <polygon id="Path" points="13 4.20173559 8.50862801 3.62101824 6.49993505 0 4.49150188 3.62101824 0 4.20173559 3.24996753 7.02015045 2.48280892 11 6.49993505 9.12090267 10.517321 11 9.75003247 7.02015045"></polygon>
                <polygon id="Path" points="28 4.20173559 23.508628 3.62101824 21.4999351 0 19.4915019 3.62101824 15 4.20173559 18.2499675 7.02015045 17.4828089 11 21.4999351 9.12090267 25.517321 11 24.7500325 7.02015045"></polygon>
            </g>
        </g>
    </g>
</svg>