<?xml version="1.0" encoding="UTF-8"?>
<svg width="527px" height="35px" viewBox="0 0 527 35" version="1.1" xmlns="http://www.w3.org/2000/svg" xmlns:xlink="http://www.w3.org/1999/xlink">
    <!-- Generator: Sketch 52.5 (67469) - http://www.bohemiancoding.com/sketch -->
    <title>Artboard</title>
    <desc>Created with Sketch.</desc>
    <g id="Artboard" stroke="none" stroke-width="1" fill="none" fill-rule="evenodd">
        <g id="Group-4">
            <g id="Group-2">
                <rect id="Rectangle" fill="#FFFFFF" fill-rule="nonzero" x="0" y="0" width="527" height="35"></rect>
                <text id="Category" font-family="OpenSans-Regular, Open Sans" font-size="16" font-weight="normal" line-spacing="20" fill="#222222">
                    <tspan x="7" y="24">Category</tspan>
                </text>
                <text id="About-us" font-family="OpenSans-Regular, Open Sans" font-size="16" font-weight="normal" line-spacing="20" fill="#222222">
                    <tspan x="98.53125" y="23.234375">About us</tspan>
                </text>
                <text id="or" font-family="OpenSans-Regular, Open Sans" font-size="16" font-weight="normal" line-spacing="20" fill="#222222">
                    <tspan x="416.105469" y="23.234375">or</tspan>
                </text>
                <g id="google-plus" transform="translate(452.000000, 3.000000)" fill-rule="nonzero">
                    <ellipse id="XMLID_30_" fill="#DC4E41" cx="14.3968319" cy="14.8289631" rx="14.3968319" ry="14.5695075"></ellipse>
                    <g id="Group" transform="translate(8.742773, 8.697576)">
                        <path d="M0.136274336,6.13135821 C0.0852035398,8.63813005 1.79132743,11.0303674 4.13827434,11.8105521 C6.3489469,12.5621681 9.06699115,11.9998846 10.5380354,10.083965 C11.6120619,8.74149673 11.8561239,6.95179877 11.7398673,5.27975183 C9.84665487,5.26261062 7.95344248,5.26832436 6.0630531,5.27118122 C6.05997345,5.95371297 6.0630531,6.63364756 6.06587611,7.3161793 C7.19944248,7.34786456 8.33326549,7.33332051 9.46683186,7.35643517 C9.18068142,8.34880723 8.52882301,9.27235475 7.53948673,9.63076183 C5.62933628,10.4826279 3.1920531,9.36974798 2.59100885,7.34189111 C1.86549558,5.4 3.05321239,3.05658907 5.01417699,2.49170835 C6.23012389,2.05876299 7.48276991,2.54624856 8.52317699,3.18592728 C9.05030973,2.68675452 9.54356637,2.15329935 10.0280973,1.61413043 C8.84602655,0.613187765 7.32699115,-0.00051943055 5.76535398,0.134272797 C2.70136283,0.171152366 0.0200176991,3.03373413 0.136274336,6.13135821 Z" id="Shape" fill="#DC4E41"></path>
                        <g fill="#FFFFFF" id="Shape">
                            <path d="M0.136274336,6.13135821 C0.0200176991,3.03373413 2.70110619,0.171152366 5.76509735,0.134013082 C7.32673451,-0.000779145825 8.84602655,0.612928049 10.0278407,1.61387072 C9.5430531,2.15329935 9.04979646,2.68649481 8.52292035,3.18566756 C7.48251327,2.54598884 6.22986726,2.05850327 5.01392035,2.49144863 C3.05269912,3.05658907 1.8649823,5.4 2.59075221,7.3416314 C3.19179646,9.36948826 5.62907965,10.4823682 7.53923009,9.63050212 C8.52830973,9.27209504 9.18042478,8.34854752 9.46657522,7.35617545 C8.33300885,7.33332051 7.19918584,7.34760485 6.06561947,7.31591958 C6.06279646,6.63338784 6.05997345,5.95345325 6.06279646,5.27092151 C7.95318584,5.26806464 9.84639823,5.2623509 11.7396106,5.27949211 C11.8558673,6.95179877 11.6120619,8.74149673 10.5377788,10.0837053 C9.06673451,11.9996249 6.3489469,12.5619084 4.1380177,11.8102924 C1.79158407,11.0303674 0.0852035398,8.63813005 0.136274336,6.13135821 Z"></path>
                        </g>
                    </g>
                </g>
                <g id="facebook" transform="translate(491.000000, 3.000000)" fill-rule="nonzero">
                    <circle id="Oval" fill="#3B5998" cx="14.8932743" cy="14.8932743" r="14.8932743"></circle>
                    <path d="M18.6374336,15.4762832 L15.9799115,15.4762832 L15.9799115,25.2122124 L11.9535398,25.2122124 L11.9535398,15.4762832 L10.0385841,15.4762832 L10.0385841,12.0546903 L11.9535398,12.0546903 L11.9535398,9.84053097 C11.9535398,8.25716814 12.7056637,5.77778761 16.0157522,5.77778761 L18.9982301,5.79026549 L18.9982301,9.11150442 L16.8342478,9.11150442 C16.479292,9.11150442 15.980177,9.28884956 15.980177,10.0441593 L15.980177,12.0578761 L18.9892035,12.0578761 L18.6374336,15.4762832 Z" id="Shape" fill="#FFFFFF"></path>
                </g>
                <g id="Group-3" transform="translate(207.000000, 3.000000)">
                    <rect id="Rectangle-2" fill="#41B4E6" x="0" y="0" width="205.333333" height="30" rx="15"></rect>
                    <text id="Sign-Up-with-Telegra" font-family="OpenSans-SemiBold, Open Sans" font-size="14" font-weight="500" fill="#FFFFFF">
                        <tspan x="35.3333333" y="20.5">Sign Up  with Telegram</tspan>
                    </text>
                    <polygon id="Shape" fill="#FFFFFF" fill-rule="nonzero" points="18.2821024 19.3067289 25.0561961 25.4053385 28.4756522 8 11 16.1968548 16.3176381 18.2971247 26.0224432 10.5347628"></polygon>
                    <polygon id="Shape" fill="#D2D2D7" fill-rule="nonzero" points="17 18.0354126 18.4469328 24.5044488 18.9516984 19.0805308 26.6417391 10"></polygon>
                    <polygon id="Shape" fill="#B9B9BE" fill-rule="nonzero" points="21.0130435 20.9203841 18 24.0765571 18.5649497 19"></polygon>
                </g>
            </g>
        </g>
    </g>
</svg>