<?xml version="1.0" encoding="UTF-8"?>
<svg width="527px" height="35px" viewBox="0 0 527 35" version="1.1" xmlns="http://www.w3.org/2000/svg" xmlns:xlink="http://www.w3.org/1999/xlink">
    <!-- Generator: Sketch 52.5 (67469) - http://www.bohemiancoding.com/sketch -->
    <title>Artboard</title>
    <desc>Created with Sketch.</desc>
    <g id="Artboard" stroke="none" stroke-width="1" fill="none" fill-rule="evenodd">
        <g id="Group-4">
            <g id="Group-2">
                <rect id="Rectangle" fill="#FFFFFF" fill-rule="nonzero" x="0" y="0" width="527" height="35"></rect>
                <path d="M13.4609375,12.6015625 C12.2057229,12.6015625 11.2148474,13.0195271 10.4882812,13.8554688 C9.76171512,14.6914104 9.3984375,15.8359302 9.3984375,17.2890625 C9.3984375,18.7838616 9.74869441,19.938798 10.4492188,20.7539062 C11.1497431,21.5690145 12.148431,21.9765625 13.4453125,21.9765625 C14.2421915,21.9765625 15.1510366,21.8333348 16.171875,21.546875 L16.171875,22.7109375 C15.3802044,23.007814 14.4036516,23.15625 13.2421875,23.15625 C11.5598874,23.15625 10.2617233,22.6458384 9.34765625,21.625 C8.43358918,20.6041616 7.9765625,19.1536552 7.9765625,17.2734375 C7.9765625,16.0963483 8.19661238,15.0651086 8.63671875,14.1796875 C9.07682512,13.2942664 9.71223543,12.6119816 10.5429688,12.1328125 C11.3737021,11.6536434 12.3515569,11.4140625 13.4765625,11.4140625 C14.6744852,11.4140625 15.7213497,11.6328103 16.6171875,12.0703125 L16.0546875,13.2109375 C15.1900998,12.8046855 14.3255252,12.6015625 13.4609375,12.6015625 Z M23.734375,23 L23.4765625,21.78125 L23.4140625,21.78125 C22.986977,22.317711 22.5612,22.6809886 22.1367188,22.8710938 C21.7122375,23.0611989 21.1822948,23.15625 20.546875,23.15625 C19.6979124,23.15625 19.0325545,22.9375022 18.5507812,22.5 C18.069008,22.0624978 17.828125,21.4401082 17.828125,20.6328125 C17.828125,18.9036372 19.2109237,17.9973963 21.9765625,17.9140625 L23.4296875,17.8671875 L23.4296875,17.3359375 C23.4296875,16.6640591 23.2851577,16.1679704 22.9960938,15.8476562 C22.7070298,15.5273421 22.2447948,15.3671875 21.609375,15.3671875 C20.8958298,15.3671875 20.0885462,15.5859353 19.1875,16.0234375 L18.7890625,15.03125 C19.2109396,14.8020822 19.6731746,14.6223965 20.1757812,14.4921875 C20.6783879,14.3619785 21.1822891,14.296875 21.6875,14.296875 C22.7083384,14.296875 23.4648413,14.5234352 23.9570312,14.9765625 C24.4492212,15.4296898 24.6953125,16.156245 24.6953125,17.15625 L24.6953125,23 L23.734375,23 Z M20.8046875,22.0859375 C21.6119832,22.0859375 22.2460914,21.8645855 22.7070312,21.421875 C23.1679711,20.9791645 23.3984375,20.359379 23.3984375,19.5625 L23.3984375,18.7890625 L22.1015625,18.84375 C21.0703073,18.8802085 20.3268252,19.0403632 19.8710938,19.3242188 C19.4153623,19.6080743 19.1875,20.0494762 19.1875,20.6484375 C19.1875,21.1171898 19.3294257,21.4739571 19.6132812,21.71875 C19.8971368,21.9635429 20.2942683,22.0859375 20.8046875,22.0859375 Z M30.1328125,22.0859375 C30.3619803,22.0859375 30.5833323,22.0690106 30.796875,22.0351562 C31.0104177,22.0013019 31.1796869,21.966146 31.3046875,21.9296875 L31.3046875,22.921875 C31.1640618,22.9895837 30.9570326,23.0455727 30.6835938,23.0898438 C30.4101549,23.1341148 30.1640636,23.15625 29.9453125,23.15625 C28.2890542,23.15625 27.4609375,22.2838629 27.4609375,20.5390625 L27.4609375,15.4453125 L26.234375,15.4453125 L26.234375,14.8203125 L27.4609375,14.28125 L28.0078125,12.453125 L28.7578125,12.453125 L28.7578125,14.4375 L31.2421875,14.4375 L31.2421875,15.4453125 L28.7578125,15.4453125 L28.7578125,20.484375 C28.7578125,21.0000026 28.8802071,21.395832 29.125,21.671875 C29.3697929,21.947918 29.705727,22.0859375 30.1328125,22.0859375 Z M36.6328125,23.15625 C35.3671812,23.15625 34.3684932,22.7708372 33.6367188,22 C32.9049443,21.2291628 32.5390625,20.158861 32.5390625,18.7890625 C32.5390625,17.4088473 32.8789029,16.3125041 33.5585938,15.5 C34.2382846,14.6874959 35.1510359,14.28125 36.296875,14.28125 C37.369797,14.28125 38.2187469,14.6341111 38.84375,15.3398438 C39.4687531,16.0455764 39.78125,16.9765567 39.78125,18.1328125 L39.78125,18.953125 L33.8828125,18.953125 C33.9088543,19.9583384 34.162758,20.7213516 34.6445312,21.2421875 C35.1263045,21.7630234 35.8046831,22.0234375 36.6796875,22.0234375 C37.6015671,22.0234375 38.5130163,21.8307311 39.4140625,21.4453125 L39.4140625,22.6015625 C38.9557269,22.7994802 38.5221375,22.9414058 38.1132812,23.0273438 C37.704425,23.1132817 37.2109404,23.15625 36.6328125,23.15625 Z M36.28125,15.3671875 C35.5937466,15.3671875 35.045575,15.5911436 34.6367188,16.0390625 C34.2278625,16.4869814 33.9869795,17.1067669 33.9140625,17.8984375 L38.390625,17.8984375 C38.390625,17.0807251 38.2083352,16.4544293 37.84375,16.0195312 C37.4791648,15.5846332 36.9583367,15.3671875 36.28125,15.3671875 Z M49,14.4375 L49,15.2578125 L47.4140625,15.4453125 C47.5598966,15.6276051 47.6901036,15.8658839 47.8046875,16.1601562 C47.9192714,16.4544286 47.9765625,16.7864565 47.9765625,17.15625 C47.9765625,17.9947959 47.690107,18.66406 47.1171875,19.1640625 C46.544268,19.664065 45.7578175,19.9140625 44.7578125,19.9140625 C44.5026029,19.9140625 44.263022,19.8932294 44.0390625,19.8515625 C43.4869764,20.1432306 43.2109375,20.5104145 43.2109375,20.953125 C43.2109375,21.1875012 43.3072907,21.3606765 43.5,21.4726562 C43.6927093,21.584636 44.0234352,21.640625 44.4921875,21.640625 L46.0078125,21.640625 C46.9349005,21.640625 47.6471329,21.8359355 48.1445312,22.2265625 C48.6419296,22.6171895 48.890625,23.1848921 48.890625,23.9296875 C48.890625,24.8776089 48.5104205,25.6002579 47.75,26.0976562 C46.9895795,26.5950546 45.8802156,26.84375 44.421875,26.84375 C43.3020777,26.84375 42.4388051,26.6354187 41.8320312,26.21875 C41.2252574,25.8020813 40.921875,25.2135455 40.921875,24.453125 C40.921875,23.9322891 41.08854,23.4817727 41.421875,23.1015625 C41.75521,22.7213523 42.2239553,22.4635423 42.828125,22.328125 C42.6093739,22.2291662 42.425782,22.0755219 42.2773438,21.8671875 C42.1289055,21.6588531 42.0546875,21.416668 42.0546875,21.140625 C42.0546875,20.8281234 42.13802,20.5546887 42.3046875,20.3203125 C42.471355,20.0859363 42.7343732,19.8593761 43.09375,19.640625 C42.6510395,19.4583324 42.290366,19.1484397 42.0117188,18.7109375 C41.7330715,18.2734353 41.59375,17.7734403 41.59375,17.2109375 C41.59375,16.2734328 41.8749972,15.5507838 42.4375,15.0429688 C43.0000028,14.5351537 43.7968698,14.28125 44.828125,14.28125 C45.2760439,14.28125 45.6796857,14.3333328 46.0390625,14.4375 L49,14.4375 Z M42.171875,24.4375 C42.171875,24.901044 42.3671855,25.252603 42.7578125,25.4921875 C43.1484395,25.731772 43.7083297,25.8515625 44.4375,25.8515625 C45.5260471,25.8515625 46.3320286,25.6888037 46.8554688,25.3632812 C47.3789089,25.0377588 47.640625,24.596357 47.640625,24.0390625 C47.640625,23.5755185 47.4973973,23.2539071 47.2109375,23.0742188 C46.9244777,22.8945304 46.3854206,22.8046875 45.59375,22.8046875 L44.0390625,22.8046875 C43.4505179,22.8046875 42.9921891,22.9453111 42.6640625,23.2265625 C42.3359359,23.5078139 42.171875,23.9114557 42.171875,24.4375 Z M42.875,17.1796875 C42.875,17.7786488 43.0442691,18.2317693 43.3828125,18.5390625 C43.7213559,18.8463557 44.1927053,19 44.796875,19 C46.0625063,19 46.6953125,18.3854228 46.6953125,17.15625 C46.6953125,15.8697852 46.0546939,15.2265625 44.7734375,15.2265625 C44.1640595,15.2265625 43.6953141,15.3906234 43.3671875,15.71875 C43.0390609,16.0468766 42.875,16.5338509 42.875,17.1796875 Z M58.1484375,18.7109375 C58.1484375,20.1067778 57.7968785,21.1966107 57.09375,21.9804688 C56.3906215,22.7643268 55.419277,23.15625 54.1796875,23.15625 C53.4140587,23.15625 52.734378,22.9765643 52.140625,22.6171875 C51.546872,22.2578107 51.0885433,21.7421909 50.765625,21.0703125 C50.4427067,20.3984341 50.28125,19.6119837 50.28125,18.7109375 C50.28125,17.3150972 50.6302048,16.2278685 51.328125,15.4492188 C52.0260452,14.670569 52.9947855,14.28125 54.234375,14.28125 C55.4322977,14.28125 56.3841111,14.6796835 57.0898438,15.4765625 C57.7955764,16.2734415 58.1484375,17.3515557 58.1484375,18.7109375 Z M51.625,18.7109375 C51.625,19.804693 51.8437478,20.638018 52.28125,21.2109375 C52.7187522,21.783857 53.3619749,22.0703125 54.2109375,22.0703125 C55.0599001,22.0703125 55.7044249,21.7851591 56.1445312,21.2148438 C56.5846376,20.6445284 56.8046875,19.8099013 56.8046875,18.7109375 C56.8046875,17.6223904 56.5846376,16.7955757 56.1445312,16.2304688 C55.7044249,15.6653618 55.0546918,15.3828125 54.1953125,15.3828125 C53.3463499,15.3828125 52.7057313,15.6614555 52.2734375,16.21875 C51.8411437,16.7760445 51.625,17.6067653 51.625,18.7109375 Z M64.328125,14.28125 C64.7083352,14.28125 65.0494777,14.3124997 65.3515625,14.375 L65.171875,15.578125 C64.8177066,15.4999996 64.5052097,15.4609375 64.234375,15.4609375 C63.5416632,15.4609375 62.9492212,15.7421847 62.4570312,16.3046875 C61.9648413,16.8671903 61.71875,17.5677041 61.71875,18.40625 L61.71875,23 L60.421875,23 L60.421875,14.4375 L61.4921875,14.4375 L61.640625,16.0234375 L61.703125,16.0234375 C62.0208349,15.466143 62.4036436,15.0364598 62.8515625,14.734375 C63.2994814,14.4322902 63.791664,14.28125 64.328125,14.28125 Z M65.59375,14.4375 L66.984375,14.4375 L68.859375,19.3203125 C69.2708354,20.4349014 69.5260412,21.2395809 69.625,21.734375 L69.6875,21.734375 C69.7552087,21.4687487 69.8971343,21.0143261 70.1132812,20.3710938 C70.3294282,19.7278614 71.0364523,17.7500166 72.234375,14.4375 L73.625,14.4375 L69.9453125,24.1875 C69.5807273,25.1510465 69.1549504,25.8346334 68.6679688,26.2382812 C68.1809871,26.6419291 67.5833369,26.84375 66.875,26.84375 C66.4791647,26.84375 66.0885436,26.7994796 65.703125,26.7109375 L65.703125,25.671875 C65.9895848,25.7343753 66.3098941,25.765625 66.6640625,25.765625 C67.554692,25.765625 68.1901023,25.26563 68.5703125,24.265625 L69.046875,23.046875 L65.59375,14.4375 Z" id="Category" fill="#222222"></path>
                <path d="M116.078125,23 L114.65625,19.3671875 L110.078125,19.3671875 L108.671875,23 L107.328125,23 L111.84375,11.53125 L112.960938,11.53125 L117.453125,23 L116.078125,23 Z M114.242188,18.171875 L112.914062,14.6328125 C112.742187,14.1848936 112.565105,13.6354199 112.382812,12.984375 C112.268229,13.4843775 112.104168,14.0338512 111.890625,14.6328125 L110.546875,18.171875 L114.242188,18.171875 Z M122.8125,14.296875 C123.937506,14.296875 124.811195,14.6809857 125.433594,15.4492188 C126.055993,16.2174518 126.367188,17.3046805 126.367188,18.7109375 C126.367188,20.1171945 126.053389,21.2096315 125.425781,21.9882812 C124.798174,22.766931 123.927089,23.15625 122.8125,23.15625 C122.255206,23.15625 121.746096,23.0533864 121.285156,22.8476562 C120.824216,22.6419261 120.437502,22.325523 120.125,21.8984375 L120.03125,21.8984375 L119.757812,23 L118.828125,23 L118.828125,10.84375 L120.125,10.84375 L120.125,13.796875 C120.125,14.4583366 120.104167,15.0520807 120.0625,15.578125 L120.125,15.578125 C120.72917,14.7239541 121.624994,14.296875 122.8125,14.296875 Z M122.625,15.3828125 C121.739579,15.3828125 121.101564,15.6367162 120.710938,16.1445312 C120.320311,16.6523463 120.125,17.5078065 120.125,18.7109375 C120.125,19.9140685 120.325519,20.774737 120.726562,21.2929688 C121.127606,21.8112005 121.770829,22.0703125 122.65625,22.0703125 C123.453129,22.0703125 124.046873,21.7799508 124.4375,21.1992188 C124.828127,20.6184867 125.023438,19.7838596 125.023438,18.6953125 C125.023438,17.5807236 124.828127,16.7500027 124.4375,16.203125 C124.046873,15.6562473 123.442712,15.3828125 122.625,15.3828125 Z M136.023438,18.7109375 C136.023438,20.1067778 135.671879,21.1966107 134.96875,21.9804688 C134.265621,22.7643268 133.294277,23.15625 132.054688,23.15625 C131.289059,23.15625 130.609378,22.9765643 130.015625,22.6171875 C129.421872,22.2578107 128.963543,21.7421909 128.640625,21.0703125 C128.317707,20.3984341 128.15625,19.6119837 128.15625,18.7109375 C128.15625,17.3150972 128.505205,16.2278685 129.203125,15.4492188 C129.901045,14.670569 130.869785,14.28125 132.109375,14.28125 C133.307298,14.28125 134.259111,14.6796835 134.964844,15.4765625 C135.670576,16.2734415 136.023438,17.3515557 136.023438,18.7109375 Z M129.5,18.7109375 C129.5,19.804693 129.718748,20.638018 130.15625,21.2109375 C130.593752,21.783857 131.236975,22.0703125 132.085938,22.0703125 C132.9349,22.0703125 133.579425,21.7851591 134.019531,21.2148438 C134.459638,20.6445284 134.679688,19.8099013 134.679688,18.7109375 C134.679688,17.6223904 134.459638,16.7955757 134.019531,16.2304688 C133.579425,15.6653618 132.929692,15.3828125 132.070312,15.3828125 C131.22135,15.3828125 130.580731,15.6614555 130.148438,16.21875 C129.716144,16.7760445 129.5,17.6067653 129.5,18.7109375 Z M139.515625,14.4375 L139.515625,19.9921875 C139.515625,20.6901077 139.674478,21.2109358 139.992188,21.5546875 C140.309897,21.8984392 140.807288,22.0703125 141.484375,22.0703125 C142.380213,22.0703125 143.035154,21.8255233 143.449219,21.3359375 C143.863283,20.8463517 144.070312,20.0468805 144.070312,18.9375 L144.070312,14.4375 L145.367188,14.4375 L145.367188,23 L144.296875,23 L144.109375,21.8515625 L144.039062,21.8515625 C143.773436,22.2734396 143.40495,22.596353 142.933594,22.8203125 C142.462237,23.044272 141.924482,23.15625 141.320312,23.15625 C140.278641,23.15625 139.498701,22.9088566 138.980469,22.4140625 C138.462237,21.9192684 138.203125,21.1276096 138.203125,20.0390625 L138.203125,14.4375 L139.515625,14.4375 Z M150.882812,22.0859375 C151.11198,22.0859375 151.333332,22.0690106 151.546875,22.0351562 C151.760418,22.0013019 151.929687,21.966146 152.054688,21.9296875 L152.054688,22.921875 C151.914062,22.9895837 151.707033,23.0455727 151.433594,23.0898438 C151.160155,23.1341148 150.914064,23.15625 150.695312,23.15625 C149.039054,23.15625 148.210938,22.2838629 148.210938,20.5390625 L148.210938,15.4453125 L146.984375,15.4453125 L146.984375,14.8203125 L148.210938,14.28125 L148.757812,12.453125 L149.507812,12.453125 L149.507812,14.4375 L151.992188,14.4375 L151.992188,15.4453125 L149.507812,15.4453125 L149.507812,20.484375 C149.507812,21.0000026 149.630207,21.395832 149.875,21.671875 C150.119793,21.947918 150.455727,22.0859375 150.882812,22.0859375 Z M159.140625,14.4375 L159.140625,19.9921875 C159.140625,20.6901077 159.299478,21.2109358 159.617188,21.5546875 C159.934897,21.8984392 160.432288,22.0703125 161.109375,22.0703125 C162.005213,22.0703125 162.660154,21.8255233 163.074219,21.3359375 C163.488283,20.8463517 163.695312,20.0468805 163.695312,18.9375 L163.695312,14.4375 L164.992188,14.4375 L164.992188,23 L163.921875,23 L163.734375,21.8515625 L163.664062,21.8515625 C163.398436,22.2734396 163.02995,22.596353 162.558594,22.8203125 C162.087237,23.044272 161.549482,23.15625 160.945312,23.15625 C159.903641,23.15625 159.123701,22.9088566 158.605469,22.4140625 C158.087237,21.9192684 157.828125,21.1276096 157.828125,20.0390625 L157.828125,14.4375 L159.140625,14.4375 Z M173.265625,20.6640625 C173.265625,21.4609415 172.968753,22.0755187 172.375,22.5078125 C171.781247,22.9401063 170.947922,23.15625 169.875,23.15625 C168.739578,23.15625 167.85417,22.9765643 167.21875,22.6171875 L167.21875,21.4140625 C167.63021,21.6223969 168.071612,21.7864577 168.542969,21.90625 C169.014325,22.0260423 169.468748,22.0859375 169.90625,22.0859375 C170.583337,22.0859375 171.104165,21.9778657 171.46875,21.7617188 C171.833335,21.5455718 172.015625,21.216148 172.015625,20.7734375 C172.015625,20.4401025 171.871095,20.1549491 171.582031,19.9179688 C171.292967,19.6809884 170.729171,19.4010433 169.890625,19.078125 C169.093746,18.7812485 168.527345,18.5221365 168.191406,18.3007812 C167.855467,18.079426 167.60547,17.8281264 167.441406,17.546875 C167.277343,17.2656236 167.195312,16.9296895 167.195312,16.5390625 C167.195312,15.8411423 167.479164,15.2903666 168.046875,14.8867188 C168.614586,14.4830709 169.393224,14.28125 170.382812,14.28125 C171.304692,14.28125 172.205725,14.4687481 173.085938,14.84375 L172.625,15.8984375 C171.765621,15.5442691 170.986983,15.3671875 170.289062,15.3671875 C169.674476,15.3671875 169.210939,15.4635407 168.898438,15.65625 C168.585936,15.8489593 168.429688,16.1145816 168.429688,16.453125 C168.429688,16.6822928 168.488281,16.8776034 168.605469,17.0390625 C168.722657,17.2005216 168.911457,17.3541659 169.171875,17.5 C169.432293,17.6458341 169.932288,17.8567695 170.671875,18.1328125 C171.687505,18.502606 172.373696,18.8749981 172.730469,19.25 C173.087241,19.6250019 173.265625,20.0963513 173.265625,20.6640625 Z" id="About-us" fill="#222222"></path>
                <path d="M433.667969,18.7109375 C433.667969,20.1067778 433.31641,21.1966107 432.613281,21.9804688 C431.910153,22.7643268 430.938808,23.15625 429.699219,23.15625 C428.93359,23.15625 428.253909,22.9765643 427.660156,22.6171875 C427.066403,22.2578107 426.608075,21.7421909 426.285156,21.0703125 C425.962238,20.3984341 425.800781,19.6119837 425.800781,18.7109375 C425.800781,17.3150972 426.149736,16.2278685 426.847656,15.4492188 C427.545576,14.670569 428.514317,14.28125 429.753906,14.28125 C430.951829,14.28125 431.903642,14.6796835 432.609375,15.4765625 C433.315108,16.2734415 433.667969,17.3515557 433.667969,18.7109375 Z M427.144531,18.7109375 C427.144531,19.804693 427.363279,20.638018 427.800781,21.2109375 C428.238283,21.783857 428.881506,22.0703125 429.730469,22.0703125 C430.579431,22.0703125 431.223956,21.7851591 431.664062,21.2148438 C432.104169,20.6445284 432.324219,19.8099013 432.324219,18.7109375 C432.324219,17.6223904 432.104169,16.7955757 431.664062,16.2304688 C431.223956,15.6653618 430.574223,15.3828125 429.714844,15.3828125 C428.865881,15.3828125 428.225263,15.6614555 427.792969,16.21875 C427.360675,16.7760445 427.144531,17.6067653 427.144531,18.7109375 Z M439.847656,14.28125 C440.227866,14.28125 440.569009,14.3124997 440.871094,14.375 L440.691406,15.578125 C440.337238,15.4999996 440.024741,15.4609375 439.753906,15.4609375 C439.061194,15.4609375 438.468752,15.7421847 437.976562,16.3046875 C437.484373,16.8671903 437.238281,17.5677041 437.238281,18.40625 L437.238281,23 L435.941406,23 L435.941406,14.4375 L437.011719,14.4375 L437.160156,16.0234375 L437.222656,16.0234375 C437.540366,15.466143 437.923175,15.0364598 438.371094,14.734375 C438.819013,14.4322902 439.311195,14.28125 439.847656,14.28125 Z" id="or" fill="#222222"></path>
                <g id="google-plus" transform="translate(452.000000, 3.000000)" fill-rule="nonzero">
                    <ellipse id="XMLID_30_" fill="#DC4E41" cx="14.3968319" cy="14.8289631" rx="14.3968319" ry="14.5695075"></ellipse>
                    <g id="Group" transform="translate(8.742773, 8.697576)">
                        <path d="M0.136274336,6.13135821 C0.0852035398,8.63813005 1.79132743,11.0303674 4.13827434,11.8105521 C6.3489469,12.5621681 9.06699115,11.9998846 10.5380354,10.083965 C11.6120619,8.74149673 11.8561239,6.95179877 11.7398673,5.27975183 C9.84665487,5.26261062 7.95344248,5.26832436 6.0630531,5.27118122 C6.05997345,5.95371297 6.0630531,6.63364756 6.06587611,7.3161793 C7.19944248,7.34786456 8.33326549,7.33332051 9.46683186,7.35643517 C9.18068142,8.34880723 8.52882301,9.27235475 7.53948673,9.63076183 C5.62933628,10.4826279 3.1920531,9.36974798 2.59100885,7.34189111 C1.86549558,5.4 3.05321239,3.05658907 5.01417699,2.49170835 C6.23012389,2.05876299 7.48276991,2.54624856 8.52317699,3.18592728 C9.05030973,2.68675452 9.54356637,2.15329935 10.0280973,1.61413043 C8.84602655,0.613187765 7.32699115,-0.00051943055 5.76535398,0.134272797 C2.70136283,0.171152366 0.0200176991,3.03373413 0.136274336,6.13135821 Z" id="Shape" fill="#DC4E41"></path>
                        <g fill="#FFFFFF" id="Shape">
                            <path d="M0.136274336,6.13135821 C0.0200176991,3.03373413 2.70110619,0.171152366 5.76509735,0.134013082 C7.32673451,-0.000779145825 8.84602655,0.612928049 10.0278407,1.61387072 C9.5430531,2.15329935 9.04979646,2.68649481 8.52292035,3.18566756 C7.48251327,2.54598884 6.22986726,2.05850327 5.01392035,2.49144863 C3.05269912,3.05658907 1.8649823,5.4 2.59075221,7.3416314 C3.19179646,9.36948826 5.62907965,10.4823682 7.53923009,9.63050212 C8.52830973,9.27209504 9.18042478,8.34854752 9.46657522,7.35617545 C8.33300885,7.33332051 7.19918584,7.34760485 6.06561947,7.31591958 C6.06279646,6.63338784 6.05997345,5.95345325 6.06279646,5.27092151 C7.95318584,5.26806464 9.84639823,5.2623509 11.7396106,5.27949211 C11.8558673,6.95179877 11.6120619,8.74149673 10.5377788,10.0837053 C9.06673451,11.9996249 6.3489469,12.5619084 4.1380177,11.8102924 C1.79158407,11.0303674 0.0852035398,8.63813005 0.136274336,6.13135821 Z"></path>
                        </g>
                    </g>
                </g>
                <g id="facebook" transform="translate(491.000000, 3.000000)" fill-rule="nonzero">
                    <circle id="Oval" fill="#3B5998" cx="14.8932743" cy="14.8932743" r="14.8932743"></circle>
                    <path d="M18.6374336,15.4762832 L15.9799115,15.4762832 L15.9799115,25.2122124 L11.9535398,25.2122124 L11.9535398,15.4762832 L10.0385841,15.4762832 L10.0385841,12.0546903 L11.9535398,12.0546903 L11.9535398,9.84053097 C11.9535398,8.25716814 12.7056637,5.77778761 16.0157522,5.77778761 L18.9982301,5.79026549 L18.9982301,9.11150442 L16.8342478,9.11150442 C16.479292,9.11150442 15.980177,9.28884956 15.980177,10.0441593 L15.980177,12.0578761 L18.9892035,12.0578761 L18.6374336,15.4762832 Z" id="Shape" fill="#FFFFFF"></path>
                </g>
                <g id="Group-3" transform="translate(207.000000, 3.000000)">
                    <rect id="Rectangle-2" fill="#41B4E6" x="0" y="0" width="205.333333" height="30" rx="15"></rect>
                    <text id="Sign-Up-with-Telegra" font-family="OpenSans-SemiBold, Open Sans" font-size="14" font-weight="500" fill="#FFFFFF">
                        <tspan x="35.3333333" y="20.5">Sign Up  with Telegram</tspan>
                    </text>
                    <polygon id="Shape" fill="#FFFFFF" fill-rule="nonzero" points="18.2821024 19.3067289 25.0561961 25.4053385 28.4756522 8 11 16.1968548 16.3176381 18.2971247 26.0224432 10.5347628"></polygon>
                    <polygon id="Shape" fill="#D2D2D7" fill-rule="nonzero" points="17 18.0354126 18.4469328 24.5044488 18.9516984 19.0805308 26.6417391 10"></polygon>
                    <polygon id="Shape" fill="#B9B9BE" fill-rule="nonzero" points="21.0130435 20.9203841 18 24.0765571 18.5649497 19"></polygon>
                </g>
            </g>
        </g>
    </g>
</svg>