<?xml version="1.0" encoding="UTF-8"?>
<svg width="17px" height="17px" viewBox="0 0 17 17" version="1.1" xmlns="http://www.w3.org/2000/svg" xmlns:xlink="http://www.w3.org/1999/xlink">
    <!-- Generator: Sketch 52.2 (67145) - http://www.bohemiancoding.com/sketch -->
    <title>Shape</title>
    <desc>Created with Sketch.</desc>
    <g id="Course-Chain" stroke="none" stroke-width="1" fill="none" fill-rule="evenodd">
        <g id="Courses" transform="translate(-1461.000000, -35.000000)" fill="#222222" fill-rule="nonzero">
            <path d="M1473.1498,45.6918239 L1472.38193,45.6918239 L1472.10978,45.4293882 C1473.06232,44.3213265 1473.63579,42.8827902 1473.63579,41.3178959 C1473.63579,37.8284734 1470.80732,35 1467.3179,35 C1463.82847,35 1461,37.8284734 1461,41.3178959 C1461,44.8073185 1463.82847,47.6357919 1467.3179,47.6357919 C1468.88279,47.6357919 1470.32133,47.0623213 1471.42939,46.109777 L1471.69182,46.3819325 L1471.69182,47.1497999 L1476.55174,52 L1478,50.5517439 L1473.1498,45.6918239 Z M1467.3179,45.6918239 C1464.89766,45.6918239 1462.94397,43.7381361 1462.94397,41.3178959 C1462.94397,38.8976558 1464.89766,36.943968 1467.3179,36.943968 C1469.73814,36.943968 1471.69182,38.8976558 1471.69182,41.3178959 C1471.69182,43.7381361 1469.73814,45.6918239 1467.3179,45.6918239 Z" id="Shape"></path>
        </g>
    </g>
</svg>