<?xml version="1.0" encoding="UTF-8"?>
<svg width="11px" height="11px" viewBox="0 0 11 11" version="1.1" xmlns="http://www.w3.org/2000/svg" xmlns:xlink="http://www.w3.org/1999/xlink">
    <!-- Generator: Sketch 52.4 (67378) - http://www.bohemiancoding.com/sketch -->
    <title>icon/av/video_library_24px</title>
    <desc>Created with Sketch.</desc>
    <g id="Course-Chain" stroke="none" stroke-width="1" fill="none" fill-rule="evenodd">
        <g id="Courses-Detail" transform="translate(-1018.000000, -597.000000)" fill="#999999" fill-rule="nonzero">
            <path d="M1019.1,599.2 L1018,599.2 L1018,606.9 C1018,607.505 1018.495,608 1019.1,608 L1026.8,608 L1026.8,606.9 L1019.1,606.9 L1019.1,599.2 Z M1027.9,597 L1021.3,597 C1020.695,597 1020.2,597.495 1020.2,598.1 L1020.2,604.7 C1020.2,605.305 1020.695,605.8 1021.3,605.8 L1027.9,605.8 C1028.505,605.8 1029,605.305 1029,604.7 L1029,598.1 C1029,597.495 1028.505,597 1027.9,597 Z M1023.5,603.875 L1023.5,598.925 L1026.8,601.4 L1023.5,603.875 Z" id="icon/av/video_library_24px"></path>
        </g>
    </g>
</svg>