<?xml version="1.0" encoding="UTF-8"?>
<svg width="225px" height="93px" viewBox="0 0 225 93" version="1.1" xmlns="http://www.w3.org/2000/svg" xmlns:xlink="http://www.w3.org/1999/xlink">
    <!-- Generator: Sketch 52.4 (67378) - http://www.bohemiancoding.com/sketch -->
    <title>Group 8</title>
    <desc>Created with Sketch.</desc>
    <defs>
        <ellipse id="path-1" cx="32.521327" cy="32.5" rx="32.521327" ry="32.5"></ellipse>
        <filter x="-38.4%" y="-35.4%" width="176.9%" height="176.9%" filterUnits="objectBoundingBox" id="filter-2">
            <feOffset dx="0" dy="2" in="SourceAlpha" result="shadowOffsetOuter1"></feOffset>
            <feGaussianBlur stdDeviation="8" in="shadowOffsetOuter1" result="shadowBlurOuter1"></feGaussianBlur>
            <feColorMatrix values="0 0 0 0 0.721115009   0 0 0 0 0.721115009   0 0 0 0 0.721115009  0 0 0 0.5 0" type="matrix" in="shadowBlurOuter1"></feColorMatrix>
        </filter>
    </defs>
    <g id="Course-Chain" stroke="none" stroke-width="1" fill="none" fill-rule="evenodd">
        <g id="Courses" transform="translate(-18.000000, 0.000000)">
            <g id="Group-8" transform="translate(34.000000, 10.000000)">
                <g id="Oval">
                    <use fill="black" fill-opacity="1" filter="url(#filter-2)" xlink:href="#path-1"></use>
                    <use fill="#FFFFFF" fill-rule="evenodd" xlink:href="#path-1"></use>
                </g>
                <g id="Group-2" transform="translate(82.000000, 19.000000)" fill="#222222">
                    <path d="M11.5244141,20.6230469 C11.5244141,21.2646516 11.4035657,21.8666964 11.1618652,22.4291992 C10.9201648,22.991702 10.588381,23.4838846 10.1665039,23.9057617 C9.7446268,24.3276388 9.25244422,24.6594226 8.68994141,24.901123 C8.12743859,25.1428235 7.52539383,25.2636719 6.88378906,25.2636719 L5.5390625,25.2636719 C4.89745773,25.2636719 4.29321573,25.1428235 3.72631836,24.901123 C3.15942099,24.6594226 2.66504117,24.3276388 2.24316406,23.9057617 C1.82128695,23.4838846 1.48950316,22.991702 1.24780273,22.4291992 C1.00610231,21.8666964 0.885253906,21.2646516 0.885253906,20.6230469 L0.885253906,10.4716797 C0.885253906,9.83007492 1.00610231,9.22803016 1.24780273,8.66552734 C1.48950316,8.10302453 1.82128695,7.61084195 2.24316406,7.18896484 C2.66504117,6.76708773 3.15942099,6.43530394 3.72631836,6.19360352 C4.29321573,5.95190309 4.89745773,5.83105469 5.5390625,5.83105469 L6.88378906,5.83105469 C7.52539383,5.83105469 8.12743859,5.95190309 8.68994141,6.19360352 C9.25244422,6.43530394 9.7446268,6.76708773 10.1665039,7.18896484 C10.588381,7.61084195 10.9201648,8.10302453 11.1618652,8.66552734 C11.4035657,9.22803016 11.5244141,9.83007492 11.5244141,10.4716797 L11.5244141,11.2363281 L9.82373047,11.5 L9.82373047,10.4716797 C9.82373047,10.0498026 9.7446297,9.65649596 9.58642578,9.29174805 C9.42822187,8.92700013 9.21289199,8.6083998 8.94042969,8.3359375 C8.66796739,8.0634752 8.34936706,7.84814532 7.98461914,7.68994141 C7.61987122,7.53173749 7.22656461,7.45263672 6.8046875,7.45263672 L5.61816406,7.45263672 C5.19628695,7.45263672 4.80298034,7.53173749 4.43823242,7.68994141 C4.0734845,7.84814532 3.75268693,8.0634752 3.47583008,8.3359375 C3.19897323,8.6083998 2.9814461,8.92700013 2.82324219,9.29174805 C2.66503827,9.65649596 2.5859375,10.0498026 2.5859375,10.4716797 L2.5859375,20.6230469 C2.5859375,21.044924 2.66503827,21.4382306 2.82324219,21.8029785 C2.9814461,22.1677264 3.19897323,22.488524 3.47583008,22.7653809 C3.75268693,23.0422377 4.0734845,23.2597648 4.43823242,23.4179688 C4.80298034,23.5761727 5.19628695,23.6552734 5.61816406,23.6552734 L6.8046875,23.6552734 C7.22656461,23.6552734 7.61987122,23.5761727 7.98461914,23.4179688 C8.34936706,23.2597648 8.66796739,23.0422377 8.94042969,22.7653809 C9.21289199,22.488524 9.42822187,22.1677264 9.58642578,21.8029785 C9.7446297,21.4382306 9.82373047,21.044924 9.82373047,20.6230469 L9.82373047,19.5947266 L11.5244141,19.871582 L11.5244141,20.6230469 Z M23.7851562,21.2954102 C23.7851562,21.8403348 23.6818858,22.3544898 23.4753418,22.8378906 C23.2687978,23.3212915 22.9853534,23.7431623 22.625,24.1035156 C22.2646466,24.463869 21.8427759,24.7473134 21.359375,24.9538574 C20.8759741,25.1604014 20.3618191,25.2636719 19.8168945,25.2636719 L18.7358398,25.2636719 C18.1909152,25.2636719 17.6767602,25.1604014 17.1933594,24.9538574 C16.7099585,24.7473134 16.2880877,24.463869 15.9277344,24.1035156 C15.567381,23.7431623 15.2839366,23.3212915 15.0773926,22.8378906 C14.8708486,22.3544898 14.7675781,21.8403348 14.7675781,21.2954102 L14.7675781,15.2045898 C14.7675781,14.6596652 14.8708486,14.1455102 15.0773926,13.6621094 C15.2839366,13.1787085 15.567381,12.7568377 15.9277344,12.3964844 C16.2880877,12.036131 16.7099585,11.7526866 17.1933594,11.5461426 C17.6767602,11.3395986 18.1909152,11.2363281 18.7358398,11.2363281 L19.8168945,11.2363281 C20.3618191,11.2363281 20.8759741,11.3395986 21.359375,11.5461426 C21.8427759,11.7526866 22.2646466,12.036131 22.625,12.3964844 C22.9853534,12.7568377 23.2687978,13.1787085 23.4753418,13.6621094 C23.6818858,14.1455102 23.7851562,14.6596652 23.7851562,15.2045898 L23.7851562,21.2954102 Z M22.1635742,15.1123047 C22.1635742,14.7871077 22.1020514,14.4816909 21.9790039,14.1960449 C21.8559564,13.910399 21.6889659,13.6621104 21.4780273,13.4511719 C21.2670888,13.2402333 21.0188003,13.0732428 20.7331543,12.9501953 C20.4475083,12.8271478 20.1420915,12.765625 19.8168945,12.765625 L18.7358398,12.765625 C18.4106429,12.765625 18.105226,12.8271478 17.8195801,12.9501953 C17.5339341,13.0732428 17.2856456,13.2402333 17.074707,13.4511719 C16.8637685,13.6621104 16.696778,13.910399 16.5737305,14.1960449 C16.450683,14.4816909 16.3891602,14.7871077 16.3891602,15.1123047 L16.3891602,21.3876953 C16.3891602,21.7128923 16.450683,22.0183091 16.5737305,22.3039551 C16.696778,22.589601 16.8637685,22.8378896 17.074707,23.0488281 C17.2856456,23.2597667 17.5339341,23.4267572 17.8195801,23.5498047 C18.105226,23.6728522 18.4106429,23.734375 18.7358398,23.734375 L19.8168945,23.734375 C20.1420915,23.734375 20.4475083,23.6728522 20.7331543,23.5498047 C21.0188003,23.4267572 21.2670888,23.2597667 21.4780273,23.0488281 C21.6889659,22.8378896 21.8559564,22.589601 21.9790039,22.3039551 C22.1020514,22.0183091 22.1635742,21.7128923 22.1635742,21.3876953 L22.1635742,15.1123047 Z M35.5053711,25 L34.6088867,23.6289062 C34.2397442,24.1298853 33.7783231,24.5275864 33.2246094,24.8220215 C32.6708957,25.1164566 32.0644564,25.2636719 31.4052734,25.2636719 L30.996582,25.2636719 C30.4516574,25.2636719 29.9375024,25.1604014 29.4541016,24.9538574 C28.9707007,24.7473134 28.5488299,24.463869 28.1884766,24.1035156 C27.8281232,23.7431623 27.5446788,23.3212915 27.3381348,22.8378906 C27.1315908,22.3544898 27.0283203,21.8403348 27.0283203,21.2954102 L27.0283203,11.5 L28.6499023,11.5 L28.6499023,21.3876953 C28.6499023,21.7128923 28.7114252,22.0183091 28.8344727,22.3039551 C28.9575201,22.589601 29.1245107,22.8378896 29.3354492,23.0488281 C29.5463878,23.2597667 29.7946763,23.4267572 30.0803223,23.5498047 C30.3659682,23.6728522 30.6713851,23.734375 30.996582,23.734375 L32.0776367,23.734375 C32.4028337,23.734375 32.7082505,23.6728522 32.9938965,23.5498047 C33.2795424,23.4267572 33.527831,23.2597667 33.7387695,23.0488281 C33.9497081,22.8378896 34.1166986,22.589601 34.2397461,22.3039551 C34.3627936,22.0183091 34.4243164,21.7128923 34.4243164,21.3876953 L34.4243164,11.5 L36.0458984,11.5 L36.0458984,25 L35.5053711,25 Z M43.2573242,13.0424805 C42.9321273,13.0424805 42.6267104,13.1040033 42.3410645,13.2270508 C42.0554185,13.3500983 41.80713,13.5170888 41.5961914,13.7280273 C41.3852529,13.9389659 41.2182623,14.1872544 41.0952148,14.4729004 C40.9721674,14.7585464 40.9106445,15.0639632 40.9106445,15.3891602 L40.9106445,25 L39.2890625,25 L39.2890625,11.5 L39.8295898,11.5 L40.7128906,12.8710938 C41.0820331,12.3701147 41.5456515,11.9724136 42.1037598,11.6779785 C42.661868,11.3835434 43.2705045,11.2363281 43.9296875,11.2363281 L44.8789062,11.2363281 L44.8789062,13.0424805 L43.2573242,13.0424805 Z M56.3222656,21.5722656 C56.3222656,22.1171902 56.2124034,22.6159645 55.9926758,23.0686035 C55.7729481,23.5212425 55.474123,23.9101546 55.0961914,24.2353516 C54.7182598,24.5605485 54.2810083,24.8132315 53.7844238,24.9934082 C53.2878393,25.1735849 52.7670926,25.2636719 52.222168,25.2636719 L51.1411133,25.2636719 C50.5961887,25.2636719 50.0754419,25.1604014 49.5788574,24.9538574 C49.0822729,24.7473134 48.6472187,24.463869 48.2736816,24.1035156 C47.9001446,23.7431623 47.6013195,23.3212915 47.3771973,22.8378906 C47.1530751,22.3544898 47.0410156,21.8403348 47.0410156,21.2954102 L47.0410156,20.7548828 L48.6625977,20.4912109 L48.6625977,21.3876953 C48.6625977,21.7128923 48.7307122,22.0183091 48.8669434,22.3039551 C49.0031745,22.589601 49.1855457,22.8378896 49.4140625,23.0488281 C49.6425793,23.2597667 49.9062485,23.4267572 50.2050781,23.5498047 C50.5039077,23.6728522 50.8159163,23.734375 51.1411133,23.734375 L52.222168,23.734375 C52.5473649,23.734375 52.8593735,23.6860356 53.1582031,23.5893555 C53.4570327,23.4926753 53.7228992,23.3542489 53.9558105,23.1740723 C54.1887219,22.9938956 54.3732903,22.7763685 54.5095215,22.5214844 C54.6457526,22.2666003 54.7138672,21.9765641 54.7138672,21.6513672 C54.7138672,21.1679663 54.6083995,20.7724625 54.3974609,20.4648438 C54.1865224,20.157225 53.9074724,19.9001475 53.5603027,19.6936035 C53.213133,19.4870595 52.8176292,19.3156745 52.3737793,19.1794434 C51.9299294,19.0432122 51.4751,18.9069831 51.0092773,18.770752 C50.5434547,18.6345208 50.0886253,18.4785165 49.6447754,18.3027344 C49.2009255,18.1269522 48.8054217,17.8962417 48.458252,17.6105957 C48.1110822,17.3249497 47.8320323,16.966799 47.6210938,16.5361328 C47.4101552,16.1054666 47.3046875,15.5693391 47.3046875,14.9277344 C47.3046875,14.3828098 47.4101552,13.8840355 47.6210938,13.4313965 C47.8320323,12.9787575 48.117674,12.5898454 48.4780273,12.2646484 C48.8383807,11.9394515 49.2580542,11.6867685 49.7370605,11.5065918 C50.2160668,11.3264151 50.7280246,11.2363281 51.2729492,11.2363281 L52.222168,11.2363281 C52.7670926,11.2363281 53.2812476,11.3395986 53.7646484,11.5461426 C54.2480493,11.7526866 54.6699201,12.036131 55.0302734,12.3964844 C55.3906268,12.7568377 55.6740712,13.1787085 55.8806152,13.6621094 C56.0871592,14.1455102 56.1904297,14.6596652 56.1904297,15.2045898 L56.1904297,15.2573242 L54.5688477,15.5209961 L54.5688477,15.1123047 C54.5688477,14.7871077 54.5073248,14.4816909 54.3842773,14.1960449 C54.2612299,13.910399 54.0942393,13.6621104 53.8833008,13.4511719 C53.6723622,13.2402333 53.4240737,13.0732428 53.1384277,12.9501953 C52.8527818,12.8271478 52.5473649,12.765625 52.222168,12.765625 L51.2729492,12.765625 C50.9477523,12.765625 50.6423354,12.8139644 50.3566895,12.9106445 C50.0710435,13.0073247 49.822755,13.1457511 49.6118164,13.3259277 C49.4008779,13.5061044 49.2338873,13.7236315 49.1108398,13.9785156 C48.9877924,14.2333997 48.9262695,14.5234359 48.9262695,14.8486328 C48.9262695,15.3144555 49.0317372,15.6945786 49.2426758,15.9890137 C49.4536143,16.2834487 49.7326643,16.5317373 50.079834,16.7338867 C50.4270037,16.9360362 50.8225075,17.1052239 51.2663574,17.2414551 C51.7102073,17.3776862 52.1628395,17.5183098 52.6242676,17.6633301 C53.0856957,17.8083503 53.5383279,17.9731436 53.9821777,18.1577148 C54.4260276,18.3422861 54.8215315,18.5795884 55.1687012,18.8696289 C55.5158709,19.1596694 55.7949208,19.5222146 56.0058594,19.9572754 C56.2167979,20.3923362 56.3222656,20.9306609 56.3222656,21.5722656 Z M68.4511719,21.2954102 C68.4511719,21.8403348 68.3479014,22.3544898 68.1413574,22.8378906 C67.9348134,23.3212915 67.651369,23.7431623 67.2910156,24.1035156 C66.9306623,24.463869 66.5087915,24.7473134 66.0253906,24.9538574 C65.5419898,25.1604014 65.0278348,25.2636719 64.4829102,25.2636719 L63.4018555,25.2636719 C62.8569309,25.2636719 62.3427759,25.1604014 61.859375,24.9538574 C61.3759741,24.7473134 60.9541034,24.463869 60.59375,24.1035156 C60.2333966,23.7431623 59.9499522,23.3212915 59.7434082,22.8378906 C59.5368642,22.3544898 59.4335938,21.8403348 59.4335938,21.2954102 L59.4335938,15.2045898 C59.4335938,14.6596652 59.5368642,14.1455102 59.7434082,13.6621094 C59.9499522,13.1787085 60.2333966,12.7568377 60.59375,12.3964844 C60.9541034,12.036131 61.3759741,11.7526866 61.859375,11.5461426 C62.3427759,11.3395986 62.8569309,11.2363281 63.4018555,11.2363281 L64.4829102,11.2363281 C65.0278348,11.2363281 65.5419898,11.3395986 66.0253906,11.5461426 C66.5087915,11.7526866 66.9306623,12.036131 67.2910156,12.3964844 C67.651369,12.7568377 67.9348134,13.1787085 68.1413574,13.6621094 C68.3479014,14.1455102 68.4511719,14.6596652 68.4511719,15.2045898 L68.4511719,18.3818359 L61.0551758,18.3818359 L61.0551758,21.3876953 C61.0551758,21.7128923 61.1166986,22.0183091 61.2397461,22.3039551 C61.3627936,22.589601 61.5297841,22.8378896 61.7407227,23.0488281 C61.9516612,23.2597667 62.1999497,23.4267572 62.4855957,23.5498047 C62.7712417,23.6728522 63.0766585,23.734375 63.4018555,23.734375 L64.4829102,23.734375 C64.8081071,23.734375 65.113524,23.6728522 65.3991699,23.5498047 C65.6848159,23.4267572 65.9331044,23.2597667 66.144043,23.0488281 C66.3549815,22.8378896 66.521972,22.589601 66.6450195,22.3039551 C66.768067,22.0183091 66.8295898,21.7128923 66.8295898,21.3876953 L66.8295898,20.4912109 L68.4511719,20.7548828 L68.4511719,21.2954102 Z M66.8295898,15.1123047 C66.8295898,14.7871077 66.768067,14.4816909 66.6450195,14.1960449 C66.521972,13.910399 66.3549815,13.6621104 66.144043,13.4511719 C65.9331044,13.2402333 65.6848159,13.0732428 65.3991699,12.9501953 C65.113524,12.8271478 64.8081071,12.765625 64.4829102,12.765625 L63.4018555,12.765625 C63.0766585,12.765625 62.7712417,12.8271478 62.4855957,12.9501953 C62.1999497,13.0732428 61.9516612,13.2402333 61.7407227,13.4511719 C61.5297841,13.6621104 61.3627936,13.910399 61.2397461,14.1960449 C61.1166986,14.4816909 61.0551758,14.7871077 61.0551758,15.1123047 L61.0551758,17.1162109 L66.8295898,17.1162109 L66.8295898,15.1123047 Z" id="Course" stroke="#222222"></path>
                    <path d="M83.5244141,21.6230469 C83.5244141,22.2646516 83.4035657,22.8666964 83.1618652,23.4291992 C82.9201648,23.991702 82.588381,24.4838846 82.1665039,24.9057617 C81.7446268,25.3276388 81.2524442,25.6594226 80.6899414,25.901123 C80.1274386,26.1428235 79.5253938,26.2636719 78.8837891,26.2636719 L77.5390625,26.2636719 C76.8974577,26.2636719 76.2932157,26.1428235 75.7263184,25.901123 C75.159421,25.6594226 74.6650412,25.3276388 74.2431641,24.9057617 C73.821287,24.4838846 73.4895032,23.991702 73.2478027,23.4291992 C73.0061023,22.8666964 72.8852539,22.2646516 72.8852539,21.6230469 L72.8852539,11.4716797 C72.8852539,10.8300749 73.0061023,10.2280302 73.2478027,9.66552734 C73.4895032,9.10302453 73.821287,8.61084195 74.2431641,8.18896484 C74.6650412,7.76708773 75.159421,7.43530394 75.7263184,7.19360352 C76.2932157,6.95190309 76.8974577,6.83105469 77.5390625,6.83105469 L78.8837891,6.83105469 C79.5253938,6.83105469 80.1274386,6.95190309 80.6899414,7.19360352 C81.2524442,7.43530394 81.7446268,7.76708773 82.1665039,8.18896484 C82.588381,8.61084195 82.9201648,9.10302453 83.1618652,9.66552734 C83.4035657,10.2280302 83.5244141,10.8300749 83.5244141,11.4716797 L83.5244141,12.2363281 L81.8237305,12.5 L81.8237305,11.4716797 C81.8237305,11.0498026 81.7446297,10.656496 81.5864258,10.291748 C81.4282219,9.92700013 81.212892,9.6083998 80.9404297,9.3359375 C80.6679674,9.0634752 80.3493671,8.84814532 79.9846191,8.68994141 C79.6198712,8.53173749 79.2265646,8.45263672 78.8046875,8.45263672 L77.6181641,8.45263672 C77.196287,8.45263672 76.8029803,8.53173749 76.4382324,8.68994141 C76.0734845,8.84814532 75.7526869,9.0634752 75.4758301,9.3359375 C75.1989732,9.6083998 74.9814461,9.92700013 74.8232422,10.291748 C74.6650383,10.656496 74.5859375,11.0498026 74.5859375,11.4716797 L74.5859375,21.6230469 C74.5859375,22.044924 74.6650383,22.4382306 74.8232422,22.8029785 C74.9814461,23.1677264 75.1989732,23.488524 75.4758301,23.7653809 C75.7526869,24.0422377 76.0734845,24.2597648 76.4382324,24.4179688 C76.8029803,24.5761727 77.196287,24.6552734 77.6181641,24.6552734 L78.8046875,24.6552734 C79.2265646,24.6552734 79.6198712,24.5761727 79.9846191,24.4179688 C80.3493671,24.2597648 80.6679674,24.0422377 80.9404297,23.7653809 C81.212892,23.488524 81.4282219,23.1677264 81.5864258,22.8029785 C81.7446297,22.4382306 81.8237305,22.044924 81.8237305,21.6230469 L81.8237305,20.5947266 L83.5244141,20.871582 L83.5244141,21.6230469 Z M94.1635742,26 L94.1635742,16.1123047 C94.1635742,15.7871077 94.1020514,15.4816909 93.9790039,15.1960449 C93.8559564,14.910399 93.6889659,14.6621104 93.4780273,14.4511719 C93.2670888,14.2402333 93.0188003,14.0732428 92.7331543,13.9501953 C92.4475083,13.8271478 92.1420915,13.765625 91.8168945,13.765625 L90.7358398,13.765625 C90.4106429,13.765625 90.105226,13.8271478 89.8195801,13.9501953 C89.5339341,14.0732428 89.2856456,14.2402333 89.074707,14.4511719 C88.8637685,14.6621104 88.696778,14.910399 88.5737305,15.1960449 C88.450683,15.4816909 88.3891602,15.7871077 88.3891602,16.1123047 L88.3891602,26 L86.7675781,26 L86.7675781,7.09472656 L88.3891602,7.09472656 L88.3891602,13.6337891 C88.7583026,13.1943337 89.2021458,12.8515637 89.7207031,12.6054688 C90.2392604,12.3593738 90.8017548,12.2363281 91.4082031,12.2363281 L91.8168945,12.2363281 C92.3618191,12.2363281 92.8759741,12.3395986 93.359375,12.5461426 C93.8427759,12.7526866 94.2646466,13.036131 94.625,13.3964844 C94.9853534,13.7568377 95.2687978,14.1787085 95.4753418,14.6621094 C95.6818858,15.1455102 95.7851562,15.6596652 95.7851562,16.2045898 L95.7851562,26 L94.1635742,26 Z M107.505371,26 L106.608887,24.6552734 C106.239744,25.1386743 105.778323,25.5275864 105.224609,25.8220215 C104.670896,26.1164566 104.064456,26.2636719 103.405273,26.2636719 L102.996582,26.2636719 C102.451657,26.2636719 101.937502,26.1604014 101.454102,25.9538574 C100.970701,25.7473134 100.54883,25.463869 100.188477,25.1035156 C99.8281232,24.7431623 99.5446788,24.3212915 99.3381348,23.8378906 C99.1315908,23.3544898 99.0283203,22.8403348 99.0283203,22.2954102 L99.0283203,22.1635742 C99.0283203,21.6186496 99.1315908,21.1044946 99.3381348,20.6210938 C99.5446788,20.1376929 99.8281232,19.7158221 100.188477,19.3554688 C100.54883,18.9951154 100.970701,18.711671 101.454102,18.505127 C101.937502,18.298583 102.451657,18.1953125 102.996582,18.1953125 L106.424316,18.1953125 L106.424316,16.1123047 C106.424316,15.7871077 106.362794,15.4816909 106.239746,15.1960449 C106.116699,14.910399 105.949708,14.6621104 105.73877,14.4511719 C105.527831,14.2402333 105.279542,14.0732428 104.993896,13.9501953 C104.708251,13.8271478 104.402834,13.765625 104.077637,13.765625 L103.128418,13.765625 C102.803221,13.765625 102.497804,13.8271478 102.212158,13.9501953 C101.926512,14.0732428 101.678224,14.2402333 101.467285,14.4511719 C101.256347,14.6621104 101.089356,14.910399 100.966309,15.1960449 C100.843261,15.4816909 100.781738,15.7871077 100.781738,16.1123047 L100.781738,16.6000977 L99.1601562,16.3364258 L99.1601562,16.2045898 C99.1601562,15.6596652 99.2634267,15.1455102 99.4699707,14.6621094 C99.6765147,14.1787085 99.9599591,13.7568377 100.320312,13.3964844 C100.680666,13.036131 101.102537,12.7526866 101.585938,12.5461426 C102.069338,12.3395986 102.583493,12.2363281 103.128418,12.2363281 L104.077637,12.2363281 C104.622561,12.2363281 105.136716,12.3395986 105.620117,12.5461426 C106.103518,12.7526866 106.525389,13.036131 106.885742,13.3964844 C107.246096,13.7568377 107.52954,14.1787085 107.736084,14.6621094 C107.942628,15.1455102 108.045898,15.6596652 108.045898,16.2045898 L108.045898,26 L107.505371,26 Z M106.424316,19.4609375 L102.996582,19.4609375 C102.671385,19.4609375 102.365968,19.5224603 102.080322,19.6455078 C101.794676,19.7685553 101.546388,19.9377431 101.335449,20.1530762 C101.124511,20.3684093 100.95752,20.6188951 100.834473,20.904541 C100.711425,21.190187 100.649902,21.4956038 100.649902,21.8208008 L100.649902,22.3876953 C100.649902,22.7128923 100.711425,23.0183091 100.834473,23.3039551 C100.95752,23.589601 101.124511,23.8378896 101.335449,24.0488281 C101.546388,24.2597667 101.794676,24.4267572 102.080322,24.5498047 C102.365968,24.6728522 102.671385,24.734375 102.996582,24.734375 L104.077637,24.734375 C104.402834,24.734375 104.708251,24.6728522 104.993896,24.5498047 C105.279542,24.4267572 105.527831,24.2597667 105.73877,24.0488281 C105.949708,23.8378896 106.116699,23.589601 106.239746,23.3039551 C106.362794,23.0183091 106.424316,22.7128923 106.424316,22.3876953 L106.424316,19.4609375 Z M111.697754,9.25683594 L111.697754,7.09472656 L113.583008,7.09472656 L113.583008,9.25683594 L111.697754,9.25683594 Z M111.82959,26 L111.82959,12.5 L113.451172,12.5 L113.451172,26 L111.82959,26 Z M124.630859,26 L124.630859,16.1123047 C124.630859,15.7871077 124.569337,15.4816909 124.446289,15.1960449 C124.323242,14.910399 124.156251,14.6621104 123.945312,14.4511719 C123.734374,14.2402333 123.486085,14.0732428 123.200439,13.9501953 C122.914793,13.8271478 122.609377,13.765625 122.28418,13.765625 L121.203125,13.765625 C120.877928,13.765625 120.572511,13.8271478 120.286865,13.9501953 C120.001219,14.0732428 119.752931,14.2402333 119.541992,14.4511719 C119.331054,14.6621104 119.164063,14.910399 119.041016,15.1960449 C118.917968,15.4816909 118.856445,15.7871077 118.856445,16.1123047 L118.856445,26 L117.234863,26 L117.234863,12.5 L117.775391,12.5 L118.658691,13.8710938 C119.027834,13.3701147 119.491452,12.9724136 120.049561,12.6779785 C120.607669,12.3835434 121.216305,12.2363281 121.875488,12.2363281 L122.28418,12.2363281 C122.829104,12.2363281 123.343259,12.3395986 123.82666,12.5461426 C124.310061,12.7526866 124.731932,13.036131 125.092285,13.3964844 C125.452639,13.7568377 125.736083,14.1787085 125.942627,14.6621094 C126.149171,15.1455102 126.252441,15.6596652 126.252441,16.2045898 L126.252441,26 L124.630859,26 Z" id="Chain"></path>
                </g>
                <g id="Group-6" transform="translate(17.000000, 13.000000)" fill-rule="nonzero">
                    <rect id="Rectangle" fill="#7EC837" x="0" y="0" width="32" height="7.44186047" rx="3.72093023"></rect>
                    <path d="M-5.58139535,10.0465116 L13.0232558,10.0465116 C15.0782688,10.0465116 16.744186,11.7124288 16.744186,13.7674419 L16.744186,13.7674419 C16.744186,15.8224549 15.0782688,17.4883721 13.0232558,17.4883721 L-5.58139535,17.4883721 C-7.63640837,17.4883721 -9.30232558,15.8224549 -9.30232558,13.7674419 L-9.30232558,13.7674419 C-9.30232558,11.7124288 -7.63640837,10.0465116 -5.58139535,10.0465116 Z" id="Rectangle" fill="#7EC837" transform="translate(3.720930, 13.767442) rotate(-270.000000) translate(-3.720930, -13.767442) "></path>
                    <g id="Group-2" transform="translate(16.000000, 27.534884) scale(-1, 1) translate(-16.000000, -27.534884) translate(0.000000, 16.372093)">
                        <path d="M-1.33226763e-15,11.1627907 L7.44186047,11.1627907 C9.49687349,11.1627907 11.1627907,12.8287079 11.1627907,14.8837209 L11.1627907,14.8837209 C11.1627907,16.938734 9.49687349,18.6046512 7.44186047,18.6046512 L-8.8817842e-16,18.6046512 C-2.05501302,18.6046512 -3.72093023,16.938734 -3.72093023,14.8837209 L-3.72093023,14.8837209 C-3.72093023,12.8287079 -2.05501302,11.1627907 -2.22044605e-15,11.1627907 Z" id="Rectangle" fill="#2E86FC" transform="translate(3.720930, 14.883721) rotate(-270.000000) translate(-3.720930, -14.883721) "></path>
                        <path d="M20.8372093,7.44186047 L35.7209302,7.44186047 C37.7759433,7.44186047 39.4418605,9.10777768 39.4418605,11.1627907 L39.4418605,11.1627907 C39.4418605,13.2178037 37.7759433,14.8837209 35.7209302,14.8837209 L20.8372093,14.8837209 C18.7821963,14.8837209 17.1162791,13.2178037 17.1162791,11.1627907 L17.1162791,11.1627907 C17.1162791,9.10777768 18.7821963,7.44186047 20.8372093,7.44186047 Z" id="Rectangle" fill="#2E86FC" transform="translate(28.279070, 11.162791) rotate(-270.000000) translate(-28.279070, -11.162791) "></path>
                        <path d="M24.5581395,7.44186047 L24.5581395,3.72093023 C24.5581395,1.66591721 26.2240567,1.65052358e-15 28.2790698,1.77635684e-15 C30.3340828,6.65894418e-17 32,1.66591721 32,3.72093023 C32,5.77594326 30.3340828,7.44186047 28.2790698,7.44186047 L24.5581395,7.44186047 Z" id="Combined-Shape" fill="#2863C4"></path>
                        <rect id="Rectangle" fill="#2E86FC" x="0" y="14.8837209" width="32" height="7.44186047" rx="3.72093023"></rect>
                        <path d="M7.44186047,14.8837209 L7.44186047,18.6046512 C7.44186047,20.6596642 5.77594326,22.3255814 3.72093023,22.3255814 C2.69342372,22.3255814 1.76319116,21.9091021 1.08983523,21.2357462 C0.416479302,20.5623902 1.25833256e-16,19.6321577 0,18.6046512 C-2.51666512e-16,16.5496381 1.66591721,14.8837209 3.72093023,14.8837209 L7.44186047,14.8837209 Z" id="Combined-Shape" fill="#2863C4"></path>
                    </g>
                    <path d="M24.5581395,3.72093023 L32,3.72093023 C34.055013,3.72093023 35.7209302,5.38684744 35.7209302,7.44186047 L35.7209302,7.44186047 C35.7209302,9.49687349 34.055013,11.1627907 32,11.1627907 L24.5581395,11.1627907 C22.5031265,11.1627907 20.8372093,9.49687349 20.8372093,7.44186047 L20.8372093,7.44186047 C20.8372093,5.38684744 22.5031265,3.72093023 24.5581395,3.72093023 Z" id="Rectangle" fill="#7EC837" transform="translate(28.279070, 7.441860) rotate(-270.000000) translate(-28.279070, -7.441860) "></path>
                    <path d="" id="Combined-Shape" fill="#7EC837"></path>
                    <path d="M30.9101648,1.08983523 C31.5835207,1.76319116 32,2.69342372 32,3.72093023 C32,5.77594326 30.3340828,7.44186047 28.2790698,7.44186047 L24.5581395,7.44186047 L24.5581395,3.72093023 C24.5581395,1.66591721 26.2240567,-6.49628579e-14 28.2790698,-6.48370246e-14 C29.3065763,-6.4774108e-14 30.2368088,0.416479302 30.9101648,1.08983523 Z" id="Combined-Shape" fill="#0D9E58"></path>
                    <path d="" id="Combined-Shape" fill="#7EC837"></path>
                    <path d="" id="Combined-Shape" fill="#7EC837"></path>
                </g>
            </g>
        </g>
    </g>
</svg>