<?xml version="1.0" encoding="UTF-8"?>
<svg width="11px" height="15px" viewBox="0 0 11 15" version="1.1" xmlns="http://www.w3.org/2000/svg" xmlns:xlink="http://www.w3.org/1999/xlink">
    <!-- Generator: Sketch 52.4 (67378) - http://www.bohemiancoding.com/sketch -->
    <title>medal</title>
    <desc>Created with Sketch.</desc>
    <g id="Course-Chain" stroke="none" stroke-width="1" fill="none" fill-rule="evenodd">
        <g id="Courses-Detail" transform="translate(-1018.000000, -703.000000)" fill="#999999">
            <g id="medal" transform="translate(1018.000000, 703.000000)">
                <path d="M5.49909061,3.14206142 C4.0433821,3.14206142 2.85901332,4.32631656 2.85901332,5.78202504 C2.85901332,7.23784722 4.0433821,8.42210233 5.49909061,8.42210233 C6.95479912,8.42210233 8.13905423,7.23784722 8.13905423,5.78202504 C8.13905423,4.32631656 6.95479912,3.14206142 5.49909061,3.14206142 Z" id="Path"></path>
                <path d="M10.9980676,7.56875207 L10.197462,5.78202504 L10.9980676,3.99529804 L9.30023356,3.02031662 L8.89771411,1.10422866 L6.95093419,1.3135024 L5.49909061,0 L4.04713336,1.3135024 L2.10046711,1.10434235 L1.69794766,3.02043031 L-5.68434189e-14,3.99529804 L0.800605579,5.78202504 L-5.68434189e-14,7.56875207 L1.69794766,8.54373347 L1.9159743,9.5818039 L0.103556968,13.4329634 L1.99509136,13.4577443 L3.21981439,14.8994709 L5.00131241,11.1137876 L5.49909061,11.5640501 L5.99675511,11.1137876 L7.77836682,14.8994709 L9.00297619,13.4577443 L10.8945106,13.4329634 L9.08209325,9.5818039 L9.30023356,8.54373347 L10.9980676,7.56875207 Z M5.49909061,9.29500454 C3.56197297,9.29500454 1.98611111,7.71914268 1.98611111,5.78202504 C1.98611111,3.84490741 3.56197297,2.26904554 5.49909061,2.26904554 C7.43609458,2.26904554 9.01207011,3.84502107 9.01207011,5.78202504 C9.01207011,7.71914268 7.43609458,9.29500454 5.49909061,9.29500454 Z" id="Shape" fill-rule="nonzero"></path>
            </g>
        </g>
    </g>
</svg>